<?xml version="1.0" standalone="no"?>
<!DOCTYPE svg PUBLIC "-//W3C//DTD SVG 1.1//EN" "http://www.w3.org/Graphics/SVG/1.1/DTD/svg11.dtd" >
<svg xmlns="http://www.w3.org/2000/svg">
<metadata></metadata>
<defs>
<font id="nissanagboldregular" horiz-adv-x="1236" >
<font-face units-per-em="2048" ascent="1638" descent="-410" />
<missing-glyph horiz-adv-x="598" />
<glyph horiz-adv-x="2048" />
<glyph horiz-adv-x="2048" />
<glyph unicode="&#xd;" horiz-adv-x="598" />
<glyph unicode=" "  horiz-adv-x="598" />
<glyph unicode="&#x09;" horiz-adv-x="598" />
<glyph unicode="&#xa0;" horiz-adv-x="598" />
<glyph unicode="!" horiz-adv-x="598" d="M184 0v348h328v-348h-328zM184 1014v432h328v-418q0 -41 -12 -90q-21 -78 -21 -86l-65 -354h-138z" />
<glyph unicode="&#x22;" horiz-adv-x="651" d="M55 1522h211l-67 -623h-76zM387 1522h211l-68 -623h-75z" />
<glyph unicode="#" horiz-adv-x="1366" d="M86 381v254h229l27 194h-205v254h240l51 363h254l-51 -363h205l49 363h256l-49 -363h186v-254h-223l-25 -194h201v-254h-238l-53 -381h-258l55 381h-202l-54 -381h-254l52 381h-193zM569 635h203l29 194h-205z" />
<glyph unicode="$" horiz-adv-x="1366" d="M53 168l189 213q121 -66 174 -86q96 -37 190 -37v315q-246 45 -340 103q-154 94 -153 295q0 127 68.5 242.5t183.5 152.5q131 41 239 49v234h166v-236q221 -23 457 -166l-180 -209q-150 76 -277 101v-273q193 -45 254 -69q252 -100 252 -351q0 -80 -25 -153 q-92 -276 -481 -313v-246h-164v246q-309 31 -553 188zM440 1008q0 -57 58 -84q31 -14 108 -29v246q-61 -8 -78 -13q-35 -12 -61.5 -48t-26.5 -72zM770 262l61 14q117 39 117 142q0 102 -178 125v-281z" />
<glyph unicode="%" horiz-adv-x="1792" d="M55 938q0 195 66 315q86 156 264 156q174 0 256 -160q66 -125 66 -315q0 -195 -68 -313q-84 -154 -262 -154q-176 0 -258 156q-63 121 -64 315zM264 924q0 -123 12 -174q27 -109 107 -109q115 0 115 293q0 299 -119 299q-115 0 -115 -309zM430 0l768 1477l164 -86 l-770 -1477zM1081 453q0 193 66 317q84 160 260 160t260 -160q68 -125 68 -317q0 -193 -68 -314q-84 -151 -262 -151q-176 0 -258 153q-66 121 -66 312zM1290 442q0 -281 121 -280q115 0 115 293q0 131 -13 182q-26 115 -114 115q-109 0 -109 -310z" />
<glyph unicode="&#x26;" horiz-adv-x="1409" d="M59 428q0 98 49.5 203.5t124.5 159.5q68 47 181 98q-94 147 -95 248q0 154 111 239q100 78 258 78q152 0 253 -82t101 -231q0 -113 -81 -209q-76 -86 -189 -127l197 -287q53 125 71 215l256 -94q-57 -178 -157 -344q66 -74 155 -68l62 4v-231h-162q-92 0 -139 16 q-55 20 -115 80q-184 -111 -385 -110q-211 0 -348 114q-147 121 -148 328zM373 444q0 -90 61.5 -152.5t151.5 -62.5q78 0 202 70l-247 379q-168 -102 -168 -234zM582 1149q0 -45 69 -156q68 43 88 62q45 41 45 90q0 90 -100 90q-39 0 -70.5 -23.5t-31.5 -62.5z" />
<glyph unicode="'" horiz-adv-x="319" d="M55 1522h211l-67 -623h-76z" />
<glyph unicode="(" horiz-adv-x="686" d="M63 639q0 600 521 1001l118 -122q-209 -242 -266 -381q-70 -166 -69 -473q0 -561 338 -859l-111 -143l-51 39q-125 94 -312 324q-168 207 -168 614z" />
<glyph unicode=")" horiz-adv-x="688" d="M-12 -217l71 84q158 184 213 356q51 156 52 414q0 559 -336 858l110 143l49 -39q252 -199 363 -407q119 -221 119 -530q0 -404 -240 -721q-102 -135 -283 -281z" />
<glyph unicode="*" horiz-adv-x="841" d="M33 1079l63 213l207 -61v215h221v-215l211 72l72 -209l-203 -70l125 -160l-174 -137l-135 174l-125 -174l-178 131l116 162z" />
<glyph unicode="+" horiz-adv-x="1482" d="M188 530v267h383v411h340v-411h383v-267h-383v-417h-340v417h-383z" />
<glyph unicode="," horiz-adv-x="512" d="M92 0v344h328v-281q0 -180 -75 -275t-251 -142v145q68 25 96 82q18 37 27 127h-125z" />
<glyph unicode="-" horiz-adv-x="770" d="M78 485v293h612v-293h-612z" />
<glyph unicode="." horiz-adv-x="512" d="M92 0v342h324v-342h-324z" />
<glyph unicode="/" horiz-adv-x="980" d="M33 0l622 1446h291l-622 -1446h-291z" />
<glyph unicode="0" horiz-adv-x="1150" d="M82 705q0 287 100 471q129 233 393 233q268 0 394 -240q98 -186 98 -481q0 -299 -100 -483q-130 -236 -406 -236q-168 0 -289 113q-113 104 -153 274q-37 154 -37 349zM385 651q0 -428 190 -428q137 0 168 219q16 113 17 242q-1 471 -189 471q-186 0 -186 -504z" />
<glyph unicode="1" horiz-adv-x="1150" d="M180 971v211q238 0 316 110q20 29 59 97h250v-1389h-332v1014q-98 -43 -293 -43z" />
<glyph unicode="2" horiz-adv-x="1150" d="M66 891v51q0 227 129 349t358 122q211 0 336 -104q135 -113 135 -320q0 -274 -258 -508q-102 -92 -279 -227l541 8v-262h-952v242l278 219q160 135 226 225q100 139 100 297q0 193 -141 193q-152 0 -152 -195v-66q6 -29 8 -41z" />
<glyph unicode="3" horiz-adv-x="1150" d="M63 446v21l320 27l-2 -60q-2 -84 41 -141q47 -63 129 -64q88 0 136 58.5t48 148.5q0 184 -200 176l-54 -2v236l47 -2q80 -4 127 40t47 124q0 68 -40.5 112.5t-106.5 44.5q-141 0 -141 -200l-324 28q45 420 483 420q297 0 400 -178q55 -96 55 -195q0 -113 -41 -177 t-141 -109q-16 -8 -47 -23q125 -23 194.5 -106.5t69.5 -210.5q0 -123 -64 -226q-134 -213 -460 -213q-225 0 -350.5 123t-125.5 348z" />
<glyph unicode="4" horiz-adv-x="1150" d="M23 319l4 250l573 820h309v-842h185v-225h-185v-322h-323v319h-563zM258 547h330v203l12 329q-59 -119 -172 -282z" />
<glyph unicode="5" horiz-adv-x="1150" d="M59 436l324 13q0 -227 164 -228q172 0 172 258q0 240 -176 240q-106 0 -146 -109l-282 47l84 727h796l-18 -262h-524l-35 -254q94 74 219 74q195 0 309 -135q109 -127 109 -326q0 -231 -143.5 -370.5t-376.5 -139.5q-221 0 -348.5 122t-127.5 343z" />
<glyph unicode="6" horiz-adv-x="1150" d="M86 662q0 338 98 518q131 236 443 235q365 0 428 -377l-330 -37q0 166 -125 166q-201 0 -201 -438q84 162 299 162q178 0 285 -125q98 -117 98 -299q0 -229 -134 -359.5t-363 -130.5q-162 0 -283 90.5t-168 246t-47 348.5zM438 444q0 -225 162 -225q168 0 168 227 q0 211 -176 211q-94 0 -133 -98q-20 -53 -21 -115z" />
<glyph unicode="7" horiz-adv-x="1150" d="M70 1120v269h981v-252q-398 -469 -482 -1137h-381q150 670 543 1120h-661z" />
<glyph unicode="8" horiz-adv-x="1150" d="M80 399q0 119 67.5 207t182.5 123q-193 98 -193 313q0 178 133 279q121 92 303 92q193 0 308 -94q125 -102 125 -291q0 -203 -197 -299l70 -27q86 -33 137 -120q47 -80 47 -179q0 -209 -145 -321q-134 -105 -347 -105q-211 0 -344 103q-147 113 -147 319zM412 424 q0 -201 157 -201q162 0 162 201q0 197 -158 197q-78 0 -122 -62q-39 -53 -39 -135zM442 1010q0 -176 129 -176q133 0 134 157q0 180 -127 180q-135 0 -136 -161z" />
<glyph unicode="9" horiz-adv-x="1150" d="M66 924q0 225 135 356t362 131q160 0 311 -108q100 -72 150 -271q37 -150 37 -315q0 -334 -100 -512q-130 -232 -439 -232q-117 0 -225 54q-127 61 -160 159q-29 86 -43 168l328 33q0 -164 127 -164q201 0 201 436q-96 -162 -301 -161q-100 0 -189.5 50t-136.5 136 q-57 104 -57 240zM379 942q0 -209 176 -209q96 0 135 101q18 49 19 112q0 223 -162 223q-168 0 -168 -227z" />
<glyph unicode=":" horiz-adv-x="598" d="M176 0v348h328v-348h-328zM176 725v344h328v-344h-328z" />
<glyph unicode=";" horiz-adv-x="598" d="M174 -209q74 27 102 80q25 45 25 129h-125v350h328v-325q-1 -45 -19 -111q-59 -209 -311 -264v141zM176 725v348h328v-348h-328z" />
<glyph unicode="&#x3c;" horiz-adv-x="1482" d="M229 528v310l953 454v-317l-643 -281l645 -295l-2 -333z" />
<glyph unicode="=" horiz-adv-x="1482" d="M205 279v268h1075v-268h-1075zM205 721v270h1075v-270h-1075z" />
<glyph unicode="&#x3e;" horiz-adv-x="1482" d="M289 958l2 334l952 -463v-311l-952 -455v320l643 281z" />
<glyph unicode="?" d="M125 1096q51 139 113 213q74 88 198 129q115 37 252 37q213 0 346 -82q164 -100 164 -301q0 -150 -102 -254q-25 -25 -232 -172q-78 -55 -92 -70q-43 -43 -53 -98h-260q0 82 14 125q18 53 70 104q96 70 194 139q115 100 115 193q0 86 -51 135t-139 49 q-109 0 -176.5 -67.5t-67.5 -176.5zM430 0v348h324v-348h-324z" />
<glyph unicode="@" horiz-adv-x="1742" d="M84 485q0 403 267 689t669 286q274 0 444 -161.5t170 -436.5q0 -240 -121 -461q-143 -264 -364 -264q-156 0 -188 139q-109 -139 -256 -139q-141 0 -218 105q-68 92 -67 239q0 209 115 387q131 203 329 203q100 0 158 -53q25 -23 57 -70l21 82h184l-67 -325 q-57 -276 -58 -338q0 -57 43 -58q59 0 131 111q129 199 129 436q0 209 -122.5 324.5t-333.5 115.5q-317 0 -539 -245q-215 -238 -215 -559q0 -272 174 -431q168 -154 442 -153q365 0 670 299l94 -127q-139 -129 -334 -244q-152 -90 -430 -90q-354 0 -628 264 q-156 150 -156 475zM631 496q0 -176 131 -177q150 0 225 242q25 78 25 148v8q0 72 -35 122t-103 50q-115 0 -186 -148q-57 -119 -57 -245z" />
<glyph unicode="A" horiz-adv-x="1449" d="M-2 0l537 1446h376l533 -1446h-385l-72 231h-532l-72 -231h-385zM539 492h366l-188 610z" />
<glyph unicode="B" horiz-adv-x="1449" d="M139 0v1446h637q172 0 260 -21q129 -31 209 -122t80 -222q0 -139 -50 -208.5t-181 -108.5q-20 -6 -78 -21q272 -39 332 -186q33 -80 32 -151q0 -138 -86 -240q-139 -166 -469 -166h-686zM483 262h252q131 0 189 25q90 39 90 149q0 176 -197 176h-334v-350zM483 874h273 q215 0 215 156q0 146 -170 146h-318v-302z" />
<glyph unicode="C" horiz-adv-x="1409" d="M80 723q0 322 186 539q199 229 514 229q406 0 611 -375l-285 -143q-98 221 -309 221q-176 0 -273 -147q-84 -127 -84 -314q0 -195 80 -321q94 -152 277 -152q190 0 313 213l287 -143q-16 -25 -51 -76q-96 -141 -247 -219t-325 -78q-324 0 -514 225q-180 211 -180 541z " />
<glyph unicode="D" horiz-adv-x="1492" d="M137 0v1446h461q565 0 713 -260q121 -213 121 -449q0 -356 -186.5 -546.5t-540.5 -190.5h-568zM502 291h123q244 0 344 106.5t100 354.5q0 268 -195 358q-66 31 -194 31h-178v-850z" />
<glyph unicode="E" horiz-adv-x="1323" d="M139 0v1446h1069v-279h-708v-264h661v-274h-661v-344h774v-285h-1135z" />
<glyph unicode="F" horiz-adv-x="1280" d="M137 0v1446h1110v-277h-749v-305h690v-278h-690v-586h-361z" />
<glyph unicode="G" horiz-adv-x="1536" d="M82 707q0 227 84 407q96 203 283 295q174 86 348 86q381 0 635 -334l-275 -166q-129 203 -336 203q-193 0 -291 -141q-88 -125 -88 -324q0 -475 379 -475q78 0 156 31q90 37 119.5 99.5t40.5 139.5h-324v275h629v-803h-283v133q-178 -166 -426 -166q-303 0 -483 223 q-168 205 -168 517z" />
<glyph unicode="H" horiz-adv-x="1536" d="M139 0v1446h367v-522h526v522h363v-1446h-363v616h-528v-616h-365z" />
<glyph unicode="I" horiz-adv-x="641" d="M137 0v1446h361v-1446h-361z" />
<glyph unicode="J" horiz-adv-x="811" d="M33 0v293h104q88 0 125 20q53 29 53 109v1024h363v-1104q0 -190 -103 -270q-91 -72 -286 -72h-256z" />
<glyph unicode="K" horiz-adv-x="1449" d="M139 0v1446h344v-590l541 590h436l-512 -537l551 -909h-407l-385 655l-224 -231v-424h-344z" />
<glyph unicode="L" horiz-adv-x="1110" d="M139 0v1446h361v-1141h565v-305h-926z" />
<glyph unicode="M" horiz-adv-x="1878" d="M139 0v1446h529l221 -811q8 -31 24 -107l27 -125q14 84 39 181l229 862h529v-1446h-348l26 1178l-47 -207l-272 -971h-312l-325 1188l12 -277l21 -911h-353z" />
<glyph unicode="N" horiz-adv-x="1492" d="M137 0v1446h355l313 -531l217 -397l-16 928h346v-1446h-355l-270 457l-254 452l12 -909h-348z" />
<glyph unicode="O" horiz-adv-x="1622" d="M86 729q0 330 193 541q199 221 524 221q502 0 674 -467q57 -156 57 -309q0 -244 -127 -441q-133 -206 -358 -280q-115 -37 -244 -37q-332 0 -531 223q-188 213 -188 549zM442 733q0 -195 84 -321q98 -150 283 -150q100 0 185 51.5t126 141.5q51 111 51 262q0 197 -86 323 q-98 148 -284 148q-178 0 -275 -144q-84 -125 -84 -311z" />
<glyph unicode="P" horiz-adv-x="1409" d="M137 0v1446h654q201 0 305 -33q154 -51 223 -192q57 -117 57 -252q0 -190 -96 -307q-68 -82 -123 -115q-37 -20 -123 -45q-104 -29 -293 -29h-241v-473h-363zM500 741h219q150 0 215 39q84 49 84 189q0 125 -86 174q-66 37 -201 37h-231v-439z" />
<glyph unicode="Q" horiz-adv-x="1622" d="M86 729q0 330 195 541q201 219 526 219q328 0 528.5 -212t200.5 -542q0 -246 -143 -481q119 -104 280 -129l-104 -258q-127 23 -213 67q-57 31 -185 125q-205 -100 -364 -100q-334 0 -531 221q-190 211 -190 549zM446 729q0 -195 86 -321q98 -145 285 -146q182 0 279 148 q82 125 82 317q0 93 -31 191q-82 264 -361 264q-211 0 -294 -217q-45 -117 -46 -236z" />
<glyph unicode="R" horiz-adv-x="1449" d="M137 0v1446h670q403 0 510 -221q59 -123 59 -246q0 -297 -297 -401l334 -578h-397l-289 516h-225v-516h-365zM500 784h299q217 0 217 199q0 195 -209 195h-307v-394z" />
<glyph unicode="S" horiz-adv-x="1409" d="M18 262l275 174q154 -184 418 -184q92 0 168 37q98 47 98 127q0 92 -80 116q-23 6 -240 43l-184 31q-164 27 -264 125q-111 106 -111 266q0 242 176 369q156 115 406 115q338 0 639 -273l-264 -190q-190 178 -379 178q-82 0 -144 -35q-74 -41 -73 -117q0 -84 90 -112 q57 -18 141 -29l146 -18q145 -25 221 -51q278 -94 278 -361q0 -149 -84 -270q-163 -236 -573 -236q-408 0 -660 295z" />
<glyph unicode="T" horiz-adv-x="1150" d="M14 1161v285h1116v-285h-374v-1161h-365v1161h-377z" />
<glyph unicode="U" horiz-adv-x="1492" d="M127 594v852h365v-901q0 -129 32 -187q53 -92 230 -92q137 0 194 74q51 66 51 207v899h363v-807q0 -215 -43 -324q-68 -170 -236 -262q-154 -86 -346 -86q-158 0 -307 66q-172 76 -231 203q-72 156 -72 358z" />
<glyph unicode="V" horiz-adv-x="1366" d="M-2 1446h385l299 -1028l297 1028h385l-502 -1446h-368z" />
<glyph unicode="W" horiz-adv-x="2004" d="M0 1446h360l82 -356q92 -401 133 -719l263 1075h319l221 -787l52 -284l51 321l161 750h359l-367 -1446h-372l-121 430l-140 526q-29 -133 -63 -258l-199 -698h-372z" />
<glyph unicode="X" horiz-adv-x="1579" d="M0 0l559 784l-481 662h428l278 -436l283 436h420l-477 -662l565 -784h-416l-371 547l-374 -547h-414z" />
<glyph unicode="Y" horiz-adv-x="1449" d="M4 1446h414l311 -496l62 109l247 387h412l-547 -762v-684h-356v674z" />
<glyph unicode="Z" horiz-adv-x="1280" d="M10 0v272l801 893h-733v281h1167v-283l-788 -878h784v-285h-1231z" />
<glyph unicode="[" horiz-adv-x="598" d="M104 -295v1890h459v-172h-186v-1546h186v-172h-459z" />
<glyph unicode="\" horiz-adv-x="980" d="M33 1446h291l622 -1446h-291z" />
<glyph unicode="]" horiz-adv-x="598" d="M35 -123h186v1546h-186v172h459v-1890h-459v172z" />
<glyph unicode="^" horiz-adv-x="1482" d="M150 575l438 871h319l426 -871h-338l-241 576l-248 -576h-356z" />
<glyph unicode="_" horiz-adv-x="1024" d="M-20 -256h1064v-211h-1064v211z" />
<glyph unicode="`" horiz-adv-x="555" d="M12 1475h379l152 -273h-207z" />
<glyph unicode="a" horiz-adv-x="1193" d="M90 297q0 98 59.5 180t151.5 123q113 49 436 102v58q0 131 -121 131q-141 0 -165 -125h-316q0 332 463 332q184 0 299 -62q150 -78 150 -245v-650q0 -94 30 -141h-309v96q-166 -125 -328 -125q-94 0 -180 39q-98 45 -129 123q-41 104 -41 164zM399 311q0 -47 35 -77.5 t84 -30.5q117 0 174 102q45 80 45 207l-202 -68q-135 -45 -136 -133z" />
<glyph unicode="b" horiz-adv-x="1280" d="M141 0v1446h308v-475q121 129 305 129q129 0 234.5 -65.5t158.5 -182.5q61 -131 61 -295q0 -246 -106 -403q-123 -183 -359 -183q-184 0 -311 142l12 -113h-303zM440 543q0 -104 17 -162q23 -78 82 -127t137 -49q225 0 225 342q0 323 -215 323q-178 0 -225 -170 q-20 -74 -21 -157z" />
<glyph unicode="c" horiz-adv-x="1024" d="M68 526q0 256 141 415t395 159q303 0 457 -258l-234 -133q-72 149 -204 149h-2q-113 0 -177 -106q-53 -90 -53 -211q0 -127 53 -217q63 -109 183 -109q154 0 209 160l237 -123q-182 -287 -475 -287q-137 0 -260 62.5t-191 177.5q-80 137 -79 321z" />
<glyph unicode="d" d="M63 528q0 160 52 291q61 158 184 221q113 57 209 58q147 0 283 -109v457h307v-1446h-287v100q-129 -129 -281 -129q-231 0 -356 168q-111 152 -111 389zM383 530q0 -325 196 -325h1q219 0 219 334q0 321 -199 321h-22q-27 0 -97 -39q-98 -55 -98 -291z" />
<glyph unicode="e" horiz-adv-x="1193" d="M66 514q0 264 141 422q147 166 407 166q176 0 330 -98q111 -70 164 -238q43 -133 43 -295h-764v-14q0 -111 66.5 -182.5t177.5 -71.5q102 0 166 49q53 43 104 141l238 -123q-78 -113 -138 -166q-76 -70 -186 -106.5t-209 -36.5q-252 0 -396 150.5t-144 402.5zM389 666 h436q-29 211 -213 211q-182 0 -223 -211z" />
<glyph unicode="f" horiz-adv-x="724" d="M20 852v192h168l-2 103v17q0 156 72 222q88 82 252 82h-1q0 -1 189 -18v-238h-71q-92 0 -113 -38q-14 -27 -14 -130h211v-192h-209v-852h-314v852h-168z" />
<glyph unicode="g" d="M63 563q0 225 113 369q120 155 339 155h3q168 0 285 -116v100h297v-1028q0 -131 -35 -205q-104 -221 -494 -221q-111 0 -215 27q-129 33 -188 96q-88 96 -88 260h326q0 -174 192 -174q109 0 152 50q41 48 41 151v10l-3 104q-141 -90 -282 -90q-217 0 -334 152 q-109 139 -109 360zM389 561q0 -272 201 -272q196 0 196 279q0 132 -34 198q-47 86 -166 86q-197 0 -197 -291z" />
<glyph unicode="h" d="M139 0v1446h316v-490q137 141 305 142q100 0 186 -47q96 -51 127 -140q27 -74 27 -196v-715h-314v559q0 125 -22 180q-37 90 -139 90q-170 0 -170 -245v-584h-316z" />
<glyph unicode="i" horiz-adv-x="598" d="M141 0v1069h314v-1069h-314zM141 1202v244h314v-244h-314z" />
<glyph unicode="j" horiz-adv-x="598" d="M0 -111l33 -2h14q60 0 80 33q14 27 14 107v1042h312v-1096q0 -174 -64 -254q-71 -84 -229 -84h-15l-145 5v249zM141 1204v242h312v-242h-312z" />
<glyph unicode="k" horiz-adv-x="1193" d="M137 0v1446h309v-744l347 367h378l-368 -381l416 -688h-365l-274 461l-136 -129v-332h-307z" />
<glyph unicode="l" horiz-adv-x="598" d="M141 0v1446h314v-1446h-314z" />
<glyph unicode="m" horiz-adv-x="1835" d="M137 0v1069h312v-113q115 141 303 142q100 0 165.5 -28t133.5 -99q139 127 317 127q98 0 180 -41q96 -47 125 -131q23 -68 23 -181v-745h-314v635q0 207 -147 207q-162 0 -162 -209v-633h-313v635q0 70 -8 102q-12 45 -53.5 74t-90.5 29q-160 0 -159 -230v-610h-312z" />
<glyph unicode="n" d="M143 0v1067h320v-92q109 121 301 121q127 0 223 -62q109 -70 109 -303v-731h-316v604q0 125 -18 168q-31 72 -135 72q-113 0 -148 -82q-20 -49 -20 -184v-578h-316z" />
<glyph unicode="o" horiz-adv-x="1280" d="M66 535q0 262 151.5 414.5t413.5 152.5q166 0 321 -70q125 -55 197 -209q66 -137 65 -286v-6q0 -106 -36 -209q-123 -354 -537 -355q-264 0 -419.5 151.5t-155.5 416.5zM383 539q0 -135 59 -222q68 -98 199 -98q125 0 193 92q61 84 61 213q0 328 -248 328h-26 q-150 0 -207 -147q-31 -78 -31 -166z" />
<glyph unicode="p" d="M131 -371v1436h281v-100q113 129 299 129q229 0 354 -172q113 -152 113 -390q0 -233 -111 -385q-125 -167 -352 -167q-123 0 -264 90v-441h-320zM436 532q0 -325 216 -325h1q117 0 174 115q47 92 47 219t-43 215q-54 114 -169 114q-119 0 -179 -114q-47 -90 -47 -224z " />
<glyph unicode="q" d="M63 522q0 244 107 400q125 176 358 176q141 0 283 -121v90h287v-1436h-316v445q-123 -98 -276 -99q-123 0 -225.5 66t-153.5 176q-63 135 -64 303zM375 539q0 -117 49 -211q59 -117 166 -117q117 0 172 117q43 90 43 219q0 125 -43 213q-53 112 -166 112 q-139 0 -193 -157q-28 -81 -28 -170v-6z" />
<glyph unicode="r" horiz-adv-x="768" d="M137 0v1071h305v-113q117 102 310 123v-278l-105 -17q-111 -18 -147 -45q-49 -37 -49 -139v-602h-314z" />
<glyph unicode="s" horiz-adv-x="1067" d="M-4 178l199 180q147 -147 313 -147q188 0 188 106q0 47 -221 109q-281 78 -289 84q-115 53 -114 235q0 207 204 306q111 53 244 53q246 0 479 -160l-194 -180q-137 106 -266 106q-152 0 -152 -84q0 -53 141 -84q49 -8 170 -34q319 -74 320 -322q0 -188 -166 -289 q-139 -86 -340 -86q-285 0 -516 207z" />
<glyph unicode="t" horiz-adv-x="724" d="M23 852v192h155v334h311v-336h209v-192h-209v-522q0 -78 78 -78h4l111 2v-244q-70 -16 -166 -16q-188 0 -260 67q-78 72 -78 256v537h-155z" />
<glyph unicode="u" d="M131 379v690h318v-678q0 -66 4 -80q10 -41 57 -65q41 -20 88 -21q182 0 182 178v666h314v-1069h-316v102q-109 -133 -309 -133q-193 0 -272 113q-66 94 -66 297z" />
<glyph unicode="v" horiz-adv-x="1024" d="M-2 1069h334l102 -387q57 -219 86 -391l178 778h324l-346 -1069h-330z" />
<glyph unicode="w" horiz-adv-x="1622" d="M0 1069h332l149 -747l162 747h336l147 -754l166 754h326l-320 -1069h-342l-157 713l-160 -713h-346z" />
<glyph unicode="x" horiz-adv-x="1067" d="M0 0l362 580l-323 489h356l142 -272l151 272h338l-324 -500l363 -569h-336l-203 332l-178 -332h-348z" />
<glyph unicode="y" horiz-adv-x="1024" d="M0 1069h336l176 -766l176 766h336l-377 -1155q-47 -147 -110 -207q-76 -76 -218 -76h-227v252h111q131 0 131 78q0 31 -53 203z" />
<glyph unicode="z" horiz-adv-x="1110" d="M70 0v236l577 591h-516v242h916v-242l-570 -583h570v-244h-977z" />
<glyph unicode="{" horiz-adv-x="649" d="M23 561v178q104 0 143 58q33 47 33 159v316q0 127 20 188q33 98 127 127q49 14 146 15h131v-172h-33q-90 0 -107 -76q-10 -51 -10 -146v-284q0 -121 -29 -174q-35 -61 -141 -103q70 -23 109 -55q61 -53 61 -219v-283q0 -100 19 -172q12 -51 108 -51h25v-170h-131 q-141 0 -205 45q-74 51 -86 184q-4 43 -4 101v317q0 119 -29 158q-35 47 -147 59z" />
<glyph unicode="|" horiz-adv-x="524" d="M125 -293v1888h272v-1888h-272z" />
<glyph unicode="}" horiz-adv-x="649" d="M25 -133h32q92 0 109 72q8 35 8 149v285q0 121 29 174q35 61 141 102q-57 18 -104 58q-66 53 -66 217v342q0 84 -20 116q-27 47 -105 48h-24v172l131 -3q57 0 149 -14q104 -31 133 -145q12 -47 13 -170v-13l-2 -305q0 -115 30 -157q37 -49 148 -60v-176q-49 -4 -70 -10 q-72 -20 -94 -80q-14 -39 -14 -127l2 -350q2 -238 -148 -283q-47 -14 -145 -14h-133v172z" />
<glyph unicode="~" horiz-adv-x="1482" d="M143 707q84 113 136 149q78 55 190 55q86 0 248 -73l117 -54q113 -51 161 -51q92 0 183 86q25 23 67 74l94 -266q-43 -53 -75 -84q-128 -119 -263 -119q-88 0 -247 78l-72 35q-127 61 -213 61q-72 0 -135 -51q-29 -23 -76 -86l-18 -25z" />
<glyph unicode="&#xa1;" horiz-adv-x="598" d="M84 0v420q0 27 16 102l17 76l63 354h137l62 -346q2 -14 18 -86q12 -55 13 -86v-434h-326zM84 1102v344h326v-344h-326z" />
<glyph unicode="&#xa2;" horiz-adv-x="1110" d="M66 514q0 242 116 399q131 178 365 179v229h158v-231q231 -39 372 -248l-233 -135q-59 111 -139 135v-619q86 23 147 150l233 -121q-78 -125 -157 -186q-93 -70 -226 -93v-243h-155v239q-227 25 -354 170.5t-127 374.5zM391 532q0 -221 156 -301v611q-80 -33 -121 -129 q-35 -82 -35 -181z" />
<glyph unicode="&#xa3;" horiz-adv-x="1409" d="M33 217q0 127 110 199q94 61 230 61q49 0 129 -10q-39 80 -86 145h-297v201h157q-74 104 -73 234q0 123 86 219q80 90 204.5 124.5t282.5 34.5q391 0 467 -231q41 -123 41 -238l-313 -22q0 125 -41 178q-49 61 -170 62q-213 0 -213 -166q0 -78 90 -195h319v-201h-184 q53 -90 53 -196q0 -29 -8 -86q90 -76 135 -76q70 0 92 88q10 41 11 143l297 -22q0 -186 -33 -275q-76 -200 -260 -200q-129 0 -340 147q-45 -51 -84 -84q-96 -82 -281 -82q-127 0 -217 60q-104 68 -104 188zM256 227q0 -80 96 -80q104 0 158 127q-84 37 -137 37 q-117 0 -117 -84z" />
<glyph unicode="&#xa4;" d="M63 563q0 225 113 369q121 156 342 155q168 0 285 -116v100h297v-1028q0 -131 -35 -205q-104 -221 -494 -221q-111 0 -215 27q-129 33 -188 96q-88 96 -88 260h326q0 -174 192 -174q109 0 152 50t41 161l-3 104q-141 -90 -282 -90q-217 0 -334 152q-109 139 -109 360z M289 1477h207q0 -127 106 -127q113 0 113 125h207q-4 -25 -15 -74q-20 -109 -108 -172q-80 -60 -195 -60q-86 0 -164 37q-88 43 -114.5 116t-36.5 155zM389 561q0 -272 201 -272q197 0 196 282q0 129 -34 195q-47 86 -166 86q-197 0 -197 -291z" />
<glyph unicode="&#xa5;" horiz-adv-x="1449" d="M4 1417h414l311 -483l309 483h412l-354 -483h174v-221h-336l-31 -43v-99h367v-221h-367v-350h-356v350h-369v221h369v88l-39 54h-330v221h172z" />
<glyph unicode="&#xa6;" horiz-adv-x="524" d="M123 -295v821h274v-821h-274zM123 770v823h274v-823h-274z" />
<glyph unicode="&#xa7;" d="M43 606q0 186 207 314q-78 90 -78 182q0 96 57.5 172t149.5 108q86 31 194 31q242 0 557 -176l-198 -162q-209 109 -344 109q-111 0 -111 -60q0 -39 43 -65q12 -6 76 -35l186 -86q211 -96 281 -152q139 -109 139 -264q0 -185 -201 -332q70 -92 70 -174q0 -68 -49 -155 q-41 -72 -150 -117q-90 -37 -188 -37q-268 0 -575 189l198 163q186 -123 350 -122q113 0 113 65q0 35 -262 170q-315 162 -326 172q-139 94 -139 262zM326 659q0 -57 53 -104q31 -27 92 -55q39 -16 141 -66l222 -115q84 80 84 150q0 80 -109 139q-59 29 -174 84l-217 109 q-92 -57 -92 -142z" />
<glyph unicode="&#xa8;" horiz-adv-x="555" d="M-141 1223v254h321v-254h-321zM373 1223v254h323v-254h-323z" />
<glyph unicode="&#xa9;" horiz-adv-x="1685" d="M115 725q0 309 210 519t519 210q303 0 516 -207t213 -508q0 -319 -206 -531t-525 -212q-307 0 -517 211t-210 518zM215 723q0 -270 179 -455.5t448 -185.5q260 0 445.5 184.5t185.5 444.5q0 279 -176.5 468t-452.5 189q-268 0 -448.5 -188.5t-180.5 -456.5zM410 729 q0 205 121.5 341t322.5 136t346 -164l-141 -163q-94 109 -205 108q-104 0 -160 -80q-49 -70 -49 -178q0 -106 51 -176q55 -78 158 -78q100 0 199 105l147 -170l-59 -60q-104 -104 -287 -104q-203 0 -328 141q-117 135 -116 342z" />
<glyph unicode="&#xaa;" horiz-adv-x="681" d="M76 1047q0 55 35.5 103t89.5 67q33 6 137 28l84 19v14q0 70 -74 70q-66 0 -76 -66h-174q0 184 242 184q246 0 246 -168v-356q0 -31 20 -57h-174l-2 49q-76 -59 -160 -60q-84 0 -139 45.5t-55 127.5zM248 1055q0 -51 57 -51q115 0 115 139v8q-53 -14 -105 -29 q-68 -27 -67 -67z" />
<glyph unicode="&#xab;" horiz-adv-x="854" d="M66 473v254l327 274v-282l-133 -117l133 -117v-280zM451 471v256l323 274v-282l-139 -117l139 -117v-280z" />
<glyph unicode="&#xac;" horiz-adv-x="1482" d="M139 524v275h1159v-750h-340v475h-819z" />
<glyph unicode="&#xad;" horiz-adv-x="770" d="M78 485v293h612v-293h-612z" />
<glyph unicode="&#xae;" horiz-adv-x="1685" d="M115 725q0 309 210 519t519 210q303 0 516 -207t213 -508q0 -319 -206 -531t-525 -212q-307 0 -517 211t-210 518zM215 723q0 -270 179 -455.5t448 -185.5q260 0 445.5 184.5t185.5 444.5q0 279 -176.5 468t-452.5 189q-268 0 -448.5 -188.5t-180.5 -456.5zM532 274v914 h273q123 0 168 -8q240 -43 239 -287q0 -172 -157 -252l168 -367h-242l-123 330h-106v-330h-220zM750 780h114q66 0 92.5 24.5t26.5 88.5q0 108 -121 108h-112v-221z" />
<glyph unicode="&#xaf;" horiz-adv-x="555" d="M-141 1223v207h837v-207h-837z" />
<glyph unicode="&#xb0;" horiz-adv-x="724" d="M10 1192q0 150 102.5 252t249.5 102q150 0 251.5 -102.5t101.5 -251.5q0 -145 -104 -248.5t-249 -103.5t-248.5 103.5t-103.5 248.5zM215 1192q0 -61 43 -104.5t104 -43.5t104.5 43t43.5 105q0 61 -43.5 103t-104.5 42q-63 0 -105 -41t-42 -104z" />
<glyph unicode="&#xb1;" horiz-adv-x="1482" d="M188 0v270h1106v-270h-1106zM188 768v266h383v377h340v-377h383v-266h-383v-391h-340l-2 391h-381z" />
<glyph unicode="&#xb2;" horiz-adv-x="768" d="M49 1061v8q0 340 305 340q145 0 236.5 -78t91.5 -221q0 -141 -107 -260q-57 -63 -223 -188h336v-181h-631v168l170 131q96 74 152 150q74 100 74 192q0 115 -88 115q-98 0 -99 -125q0 -29 8 -63z" />
<glyph unicode="&#xb3;" horiz-adv-x="768" d="M45 766v33l219 16l-4 -41q0 -55 28.5 -94t82.5 -39q51 0 83.5 35t32.5 86q0 121 -165 121v164l40 -5q102 0 103 99q0 98 -94 98q-88 0 -88 -133l-220 20q25 150 101 216.5t225 66.5q125 0 203 -55q90 -63 90 -183q0 -82 -30.5 -126t-106.5 -76q168 -45 168 -213 q0 -139 -103 -217q-92 -72 -235 -72q-330 0 -330 299z" />
<glyph unicode="&#xb4;" horiz-adv-x="555" d="M16 1200l150 273h373l-314 -273h-209z" />
<glyph unicode="&#xb6;" horiz-adv-x="1308" d="M135 1016q0 291 236 389q98 41 260 41h489v-170h-73v-1618h-181v1618h-231v-1618h-182v958q-100 25 -148 54q-82 51 -127 151q-43 92 -43 195z" />
<glyph unicode="&#xb7;" horiz-adv-x="481" d="M76 422v342h330v-342h-330z" />
<glyph unicode="&#xb8;" horiz-adv-x="555" d="M76 -299l57 47q57 -66 111 -65q74 0 73 65q0 82 -116 82q-10 0 -27.5 -4t-26.5 -4l-26 37l67 123h97l-45 -93q41 6 82 7q158 0 157 -134q0 -76 -60 -120.5t-138 -44.5q-109 0 -205 104z" />
<glyph unicode="&#xb9;" horiz-adv-x="768" d="M98 1106v149q102 0 158 23q70 29 113 108h174v-905h-226v649q-80 -25 -219 -24z" />
<glyph unicode="&#xba;" horiz-adv-x="724" d="M61 1169q0 137 80 217t217 80t218 -79.5t81 -217.5q0 -139 -80 -221t-219 -82q-141 0 -219 81t-78 222zM233 1163q0 -158 127 -157q125 0 125 159q0 162 -131 162q-121 0 -121 -164z" />
<glyph unicode="&#xbb;" horiz-adv-x="854" d="M74 197v282l139 119l-139 117v278l325 -264v-256zM457 197v282l131 119l-131 117v278l325 -268v-252z" />
<glyph unicode="&#xbc;" horiz-adv-x="1792" d="M98 1106v149q102 0 158 23q70 29 113 108h174v-905h-226v649q-80 -25 -219 -24zM430 0l768 1477l164 -86l-770 -1477zM1047 201v172l378 530h213v-543h119v-159h-121v-201h-217v201h-372zM1217 360h202v308z" />
<glyph unicode="&#xbd;" horiz-adv-x="1792" d="M98 1106v149q102 0 158 23q70 29 113 108h174v-905h-226v649q-80 -25 -219 -24zM381 0l768 1477l164 -86l-770 -1477zM1071 578q0 348 307 348q143 0 235.5 -78t92.5 -219q0 -147 -104 -264q-51 -57 -228 -185h336v-180h-629v168q223 174 250 201q145 141 146 270 q0 115 -88 115q-100 0 -101 -123q0 -31 10 -66z" />
<glyph unicode="&#xbe;" horiz-adv-x="1792" d="M45 766v33l219 16l-4 -41q0 -55 28.5 -94t82.5 -39q51 0 83.5 35t32.5 86q0 121 -165 121v164l40 -5q102 0 103 99q0 98 -94 98q-88 0 -88 -133l-220 20q25 150 101 216.5t225 66.5q125 0 203 -55q90 -63 90 -183q0 -82 -30.5 -126t-106.5 -76q168 -45 168 -213 q0 -139 -103 -217q-92 -72 -235 -72q-330 0 -330 299zM489 0l768 1477l164 -86l-770 -1477zM1047 201v172l378 530h213v-543h119v-159h-121v-201h-217v201h-372zM1217 360h202v308z" />
<glyph unicode="&#xbf;" d="M39 360q0 133 78 224q45 53 188 155l154 111q51 37 59 104h260q0 -143 -69 -215q-39 -39 -132.5 -102.5t-132.5 -106.5q-61 -66 -61 -137q0 -86 53 -135t139 -49q109 0 176.5 67.5t67.5 176.5l293 -95l-31 -82q-16 -40 -45 -83q-143 -215 -487 -216q-213 0 -346 82 q-164 100 -164 301zM483 1104v342h324v-342h-324z" />
<glyph unicode="&#xc0;" horiz-adv-x="1449" d="M-2 0l537 1446h376l533 -1446h-385l-72 231h-532l-72 -231h-385zM344 1839h377l129 -237h-207zM539 492h366l-188 610z" />
<glyph unicode="&#xc1;" horiz-adv-x="1449" d="M-2 0l537 1446h376l533 -1446h-385l-72 231h-532l-72 -231h-385zM539 492h366l-188 610zM604 1602l125 235h369l-297 -235h-197z" />
<glyph unicode="&#xc2;" horiz-adv-x="1449" d="M-2 0l537 1446h376l533 -1446h-385l-72 231h-532l-72 -231h-385zM408 1595l184 236h272l180 -236h-239l-82 105l-78 -105h-237zM539 492h366l-188 610z" />
<glyph unicode="&#xc3;" horiz-adv-x="1449" d="M-2 0l537 1446h376l533 -1446h-385l-72 231h-532l-72 -231h-385zM375 1585q12 90 28 131q23 55 75 92t110 37q53 0 152.5 -43t136.5 -43q51 0 84 80h141q-16 -115 -33 -149q-23 -47 -70 -81t-96 -34q-55 0 -168.5 48t-144.5 48q-33 0 -54.5 -25.5t-21.5 -60.5h-139z M539 492h366l-188 610z" />
<glyph unicode="&#xc4;" horiz-adv-x="1449" d="M-2 0l537 1446h376l533 -1446h-385l-72 231h-532l-72 -231h-385zM328 1593v240h327v-240h-327zM539 492h366l-188 610zM780 1593v240h330v-240h-330z" />
<glyph unicode="&#xc5;" horiz-adv-x="1449" d="M-2 0l537 1446h376l533 -1446h-385l-72 231h-532l-72 -231h-385zM514 1698q0 82 59.5 141t141.5 59q84 0 142 -58t58 -142q0 -82 -59 -141.5t-141 -59.5t-141.5 59.5t-59.5 141.5zM539 492h366l-188 610zM637 1700q0 -80 80 -80q33 0 56.5 23.5t23.5 56.5t-23.5 56.5 t-56.5 23.5q-80 0 -80 -80z" />
<glyph unicode="&#xc6;" horiz-adv-x="2304" d="M-10 0l854 1446h1351v-275h-739v-268h690v-276h-688v-344h807v-283h-1169v350h-506l-195 -350h-405zM735 616h361v648z" />
<glyph unicode="&#xc7;" horiz-adv-x="1409" d="M80 711q0 328 182 546q197 233 518 234q406 0 611 -375l-285 -143q-104 221 -309 221q-178 0 -275 -147q-82 -125 -82 -314q0 -195 80 -321q94 -152 277 -152q113 0 188 57q61 47 125 156l287 -143q-54 -93 -111 -152q-209 -221 -528 -221l-31 -68q41 6 80 7 q156 0 156 -134q0 -74 -60.5 -119.5t-136.5 -45.5q-115 0 -203 104l58 47q55 -66 108 -65q74 0 74 65q0 82 -117 82q-10 0 -27.5 -4t-25.5 -4l-25 37l58 106q-195 39 -314 125q-129 96 -200.5 271.5t-71.5 349.5z" />
<glyph unicode="&#xc8;" horiz-adv-x="1323" d="M139 0v1446h1069v-279h-708v-264h661v-274h-661v-344h774v-285h-1135zM334 1839h375l131 -237h-207z" />
<glyph unicode="&#xc9;" horiz-adv-x="1323" d="M139 0v1446h1069v-279h-708v-264h661v-274h-661v-344h774v-285h-1135zM518 1602l125 235h369l-295 -235h-199z" />
<glyph unicode="&#xca;" horiz-adv-x="1323" d="M139 0v1446h1069v-279h-708v-264h661v-274h-661v-344h774v-285h-1135zM344 1595l182 236h273l180 -236h-238l-82 105l-77 -105h-238z" />
<glyph unicode="&#xcb;" horiz-adv-x="1323" d="M139 0v1446h1069v-279h-708v-264h661v-274h-661v-344h774v-285h-1135zM268 1599v240h328v-240h-328zM723 1602v237h330v-237h-330z" />
<glyph unicode="&#xcc;" horiz-adv-x="641" d="M-61 1839h376l129 -237h-206zM137 0v1446h361v-1446h-361z" />
<glyph unicode="&#xcd;" horiz-adv-x="641" d="M137 0v1446h361v-1446h-361zM199 1602l125 235h368l-295 -235h-198z" />
<glyph unicode="&#xce;" horiz-adv-x="641" d="M2 1595l184 236h273l180 -236h-240l-82 105l-77 -105h-238zM137 0v1446h361v-1446h-361z" />
<glyph unicode="&#xcf;" horiz-adv-x="641" d="M-74 1599v240h330v-240h-330zM137 0v1446h361v-1446h-361zM383 1602v237h328v-237h-328z" />
<glyph unicode="&#xd0;" horiz-adv-x="1536" d="M82 707q0 227 84 407q96 203 283 295q174 86 348 86q381 0 635 -334l-275 -166q-129 203 -336 203q-193 0 -291 -141q-88 -125 -88 -324q0 -475 379 -475q78 0 156 31q90 37 119.5 99.5t40.5 139.5h-324v275h629v-803h-283v133q-178 -166 -426 -166q-303 0 -483 223 q-168 205 -168 517zM473 1886h207q0 -127 106 -127q113 0 113 125h207q-4 -25 -14 -74q-20 -109 -109 -172q-80 -59 -195 -59q-86 0 -163 37q-88 43 -115 115.5t-37 154.5z" />
<glyph unicode="&#xd1;" horiz-adv-x="1492" d="M137 0v1446h355l313 -531l217 -397l-16 928h346v-1446h-355l-270 457l-254 452l12 -909h-348zM395 1585q12 90 29 131q23 53 76 91t110 38q51 0 151.5 -43t137.5 -43q63 0 82 80h141q-10 -92 -20 -125q-20 -63 -72.5 -101t-105.5 -38q-55 0 -166 48t-148 48 q-53 0 -75 -86h-140z" />
<glyph unicode="&#xd2;" horiz-adv-x="1622" d="M86 729q0 330 193 541q199 221 524 221q502 0 674 -467q57 -156 57 -309q0 -244 -127 -441q-133 -206 -358 -280q-115 -37 -244 -37q-332 0 -531 223q-188 213 -188 549zM440 1839h377l129 -237h-207zM442 733q0 -195 84 -321q98 -150 283 -150q100 0 185 51.5t126 141.5 q51 111 51 262q0 197 -86 323q-98 148 -284 148q-178 0 -275 -144q-84 -125 -84 -311z" />
<glyph unicode="&#xd3;" horiz-adv-x="1622" d="M86 729q0 330 193 541q199 221 524 221q502 0 674 -467q57 -156 57 -309q0 -244 -127 -441q-133 -206 -358 -280q-115 -37 -244 -37q-332 0 -531 223q-188 213 -188 549zM442 733q0 -195 84 -321q98 -150 283 -150q100 0 185 51.5t126 141.5q51 111 51 262q0 197 -86 323 q-98 148 -284 148q-178 0 -275 -144q-84 -125 -84 -311zM678 1602l125 235h368l-294 -235h-199z" />
<glyph unicode="&#xd4;" horiz-adv-x="1622" d="M86 729q0 330 193 541q199 221 524 221q502 0 674 -467q57 -156 57 -309q0 -244 -127 -441q-133 -206 -358 -280q-115 -37 -244 -37q-332 0 -531 223q-188 213 -188 549zM442 733q0 -195 84 -321q98 -150 283 -150q100 0 185 51.5t126 141.5q51 111 51 262q0 197 -86 323 q-98 148 -284 148q-178 0 -275 -144q-84 -125 -84 -311zM494 1595l182 236h272l180 -236h-237l-82 105l-80 -105h-235z" />
<glyph unicode="&#xd5;" horiz-adv-x="1622" d="M86 729q0 330 193 541q199 221 524 221q502 0 674 -467q57 -156 57 -309q0 -244 -127 -441q-133 -206 -358 -280q-115 -37 -244 -37q-332 0 -531 223q-188 213 -188 549zM442 733q0 -195 84 -321q98 -150 283 -150q100 0 185 51.5t126 141.5q51 111 51 262q0 197 -86 323 q-98 148 -284 148q-178 0 -275 -144q-84 -125 -84 -311zM461 1585q12 92 28 131q23 55 74 92t111 37q51 0 153.5 -43t135.5 -43q63 0 81 80h142q-10 -86 -23 -123q-23 -66 -71 -103.5t-105 -37.5q-55 0 -165.5 48t-147.5 48q-53 0 -76 -86h-137z" />
<glyph unicode="&#xd6;" horiz-adv-x="1622" d="M86 729q0 330 193 541q199 221 524 221q502 0 674 -467q57 -156 57 -309q0 -244 -127 -441q-133 -206 -358 -280q-115 -37 -244 -37q-332 0 -531 223q-188 213 -188 549zM420 1597v238h328v-238h-328zM442 733q0 -195 84 -321q98 -150 283 -150q100 0 185 51.5t126 141.5 q51 111 51 262q0 197 -86 323q-98 148 -284 148q-178 0 -275 -144q-84 -125 -84 -311zM872 1597v238h332v-238h-332z" />
<glyph unicode="&#xd7;" horiz-adv-x="1482" d="M233 918l236 245l297 -284l264 278l195 -184l-267 -277l304 -290l-234 -246l-303 289l-264 -277l-193 184l264 277z" />
<glyph unicode="&#xd8;" horiz-adv-x="1579" d="M-6 111l199 180q-115 207 -115 436q0 201 102 406q117 231 289 290q188 66 336 66q270 0 483 -205l182 166l111 -121l-192 -176q109 -190 108 -424q0 -381 -231 -588q-205 -182 -480 -182q-150 0 -266 51q-102 45 -225 152l-191 -174zM428 731q0 -84 23 -205l600 545 q-109 129 -254 129q-182 0 -283 -149q-86 -127 -86 -320zM532 375q106 -119 275 -119q168 0 266 147q84 129 84 306q0 79 -31 206z" />
<glyph unicode="&#xd9;" horiz-adv-x="1492" d="M127 594v852h365v-901q0 -129 32 -187q53 -92 230 -92q137 0 194 74q51 66 51 207v899h363v-807q0 -215 -43 -324q-68 -170 -236 -262q-154 -86 -346 -86q-158 0 -307 66q-172 76 -231 203q-72 156 -72 358zM387 1839h377l129 -237h-207z" />
<glyph unicode="&#xda;" horiz-adv-x="1492" d="M127 594v852h365v-901q0 -129 32 -187q53 -92 230 -92q137 0 194 74q51 66 51 207v899h363v-807q0 -215 -43 -324q-68 -170 -236 -262q-154 -86 -346 -86q-158 0 -307 66q-172 76 -231 203q-72 156 -72 358zM604 1602l125 235h369l-297 -235h-197z" />
<glyph unicode="&#xdb;" horiz-adv-x="1492" d="M127 594v852h365v-901q0 -129 32 -187q53 -92 230 -92q137 0 194 74q51 66 51 207v899h363v-807q0 -215 -43 -324q-68 -170 -236 -262q-154 -86 -346 -86q-158 0 -307 66q-172 76 -231 203q-72 156 -72 358zM430 1595l182 236h273l180 -236h-240l-80 105l-79 -105h-236z " />
<glyph unicode="&#xdc;" horiz-adv-x="1492" d="M127 594v852h365v-901q0 -129 32 -187q53 -92 230 -92q137 0 194 74q51 66 51 207v899h363v-807q0 -215 -43 -324q-68 -170 -236 -262q-154 -86 -346 -86q-158 0 -307 66q-172 76 -231 203q-72 156 -72 358zM352 1597v240h330v-240h-330zM807 1597v240h330v-240h-330z " />
<glyph unicode="&#xdd;" horiz-adv-x="641" d="M137 0v1446h361v-1446h-361zM162 1612v243h313v-243h-313z" />
<glyph unicode="&#xde;" horiz-adv-x="1409" d="M18 262l275 174q154 -184 418 -184q92 0 168 37q98 47 98 127q0 92 -80 116q-23 6 -240 43l-184 31q-164 27 -264 125q-111 106 -111 266q0 242 176 369q156 115 406 115q338 0 639 -273l-264 -190q-190 178 -379 178q-82 0 -144 -35q-74 -41 -73 -117q0 -84 90 -112 q57 -18 141 -29l146 -18q145 -25 221 -51q279 -94 278 -363q0 -147 -84 -268q-163 -236 -573 -236q-408 0 -660 295zM543 -279l57 48q55 -66 109 -66q74 0 73 66q0 82 -116 81q-10 0 -27.5 -4t-26.5 -4l-24 37l57 107l92 -9l-30 -67q41 6 79 6q156 0 156 -133 q0 -74 -60.5 -120t-136.5 -46q-115 0 -202 104z" />
<glyph unicode="&#xdf;" d="M137 0v961q0 516 479 516q199 0 322 -86q141 -98 141 -291q0 -156 -94 -213q-43 -27 -92 -37q279 0 278 -387q0 -207 -88 -336q-100 -150 -299 -150q-115 0 -200 35v234q61 -31 104 -31q176 0 176 242q0 80 -22 149q-29 94 -85.5 116.5t-156.5 22.5h-41v189q125 0 166 20 q63 33 63 142q0 170 -163 170q-59 0 -105.5 -36t-57.5 -90.5t-11 -109.5v-1030h-314z" />
<glyph unicode="&#xe0;" horiz-adv-x="1193" d="M90 297q0 98 59.5 180t151.5 123q113 49 436 102v58q0 131 -121 131q-141 0 -165 -125h-316q0 332 463 332q184 0 299 -62q150 -78 150 -245v-650q0 -94 30 -141h-309v96q-166 -125 -328 -125q-94 0 -180 39q-98 45 -129 123q-41 104 -41 164zM246 1475h377l153 -273 h-209zM399 311q0 -47 35 -77.5t84 -30.5q117 0 174 102q45 80 45 207l-202 -68q-135 -45 -136 -133z" />
<glyph unicode="&#xe1;" horiz-adv-x="1193" d="M90 297q0 98 59.5 180t151.5 123q113 49 436 102v58q0 131 -121 131q-141 0 -165 -125h-316q0 332 463 332q184 0 299 -62q150 -78 150 -245v-650q0 -94 30 -141h-309v96q-166 -125 -328 -125q-94 0 -180 39q-98 45 -129 123q-41 104 -41 164zM399 311q0 -47 35 -77.5 t84 -30.5q117 0 174 102q45 80 45 207l-202 -68q-135 -45 -136 -133zM498 1200l149 273h375l-315 -273h-209z" />
<glyph unicode="&#xe2;" horiz-adv-x="1193" d="M90 297q0 98 59.5 180t151.5 123q113 49 436 102v58q0 131 -121 131q-141 0 -165 -125h-316q0 332 463 332q184 0 299 -62q150 -78 150 -245v-650q0 -94 30 -141h-309v96q-166 -125 -328 -125q-94 0 -180 39q-98 45 -129 123q-41 104 -41 164zM264 1204l207 271h258 l211 -269h-242l-98 127l-96 -129h-240zM399 311q0 -47 35 -77.5t84 -30.5q117 0 174 102q45 80 45 207l-202 -68q-135 -45 -136 -133z" />
<glyph unicode="&#xe3;" horiz-adv-x="1193" d="M90 297q0 98 59.5 180t151.5 123q113 49 436 102v58q0 131 -121 131q-141 0 -165 -125h-316q0 332 463 332q184 0 299 -62q150 -78 150 -245v-650q0 -94 30 -141h-309v96q-166 -125 -328 -125q-94 0 -180 39q-98 45 -129 123q-41 104 -41 164zM227 1192q14 129 47 192 q49 98 158 99q51 0 156.5 -46t142.5 -46q70 0 80 84h143q-14 -135 -41 -189q-45 -94 -151 -94q-53 0 -160.5 47t-146.5 47q-80 0 -80 -94h-148zM399 311q0 -47 35 -77.5t84 -30.5q117 0 174 102q45 80 45 207l-202 -68q-135 -45 -136 -133z" />
<glyph unicode="&#xe4;" horiz-adv-x="1193" d="M90 297q0 98 59.5 180t151.5 123q113 49 436 102v58q0 131 -121 131q-141 0 -165 -125h-316q0 332 463 332q184 0 299 -62q150 -78 150 -245v-650q0 -94 30 -141h-309v96q-166 -125 -328 -125q-94 0 -180 39q-98 45 -129 123q-41 104 -41 164zM209 1221v254h321v-254 h-321zM399 311q0 -47 35 -77.5t84 -30.5q117 0 174 102q45 80 45 207l-202 -68q-135 -45 -136 -133zM723 1221v254h321v-254h-321z" />
<glyph unicode="&#xe5;" horiz-adv-x="1193" d="M90 297q0 98 59.5 180t151.5 123q113 49 436 102v58q0 131 -121 131q-141 0 -165 -125h-316q0 332 463 332q184 0 299 -62q150 -78 150 -245v-650q0 -94 30 -141h-309v96q-166 -125 -328 -125q-94 0 -180 39q-98 45 -129 123q-41 104 -41 164zM399 311q0 -47 35 -77.5 t84 -30.5q117 0 174 102q45 80 45 207l-202 -68q-135 -45 -136 -133zM426 1335q0 86 57.5 144.5t143.5 58.5q84 0 143 -59.5t59 -143.5t-59 -142t-143 -58q-86 0 -143.5 57t-57.5 143zM547 1335q0 -80 80 -80q82 0 82 80q0 33 -24.5 57.5t-57.5 24.5q-80 0 -80 -82z" />
<glyph unicode="&#xe6;" horiz-adv-x="1792" d="M51 324q0 84 44 160.5t118 119.5q104 61 326 86l106 12q35 4 74 17v10q0 156 -158 156q-145 0 -145 -117h-322q0 217 191 293q102 41 223 41q201 0 385 -113q158 115 328 115q176 0 310 -94.5t177 -261.5q39 -150 39 -263h-715q10 -86 27 -125q25 -55 84 -94 q68 -43 129 -43q82 0 141 51q43 37 92 125l244 -123q-45 -77 -84 -120q-158 -180 -412 -181q-236 0 -385 162q-199 -164 -419 -164q-168 0 -279 90q-119 96 -119 261zM362 330q0 -117 138 -117q109 0 170 90q53 82 47 195l-2 32q-39 -18 -138.5 -39.5t-144.5 -48.5 q-70 -41 -70 -112zM1032 680h387q-30 199 -190 199q-82 0 -134.5 -57.5t-62.5 -141.5z" />
<glyph unicode="&#xe7;" horiz-adv-x="1024" d="M68 526q0 256 141 415t395 159q303 0 457 -258l-234 -133q-70 150 -206 149q-113 0 -177 -106q-53 -90 -53 -211q0 -127 53 -217q63 -109 183 -109q154 0 209 160l237 -123q-178 -285 -502 -285l-36 -78q41 6 81 7q66 0 110 -35t44 -99q0 -72 -61.5 -118.5t-135.5 -46.5 q-111 0 -202 104l57 47q57 -66 111 -65q29 0 50 19t21 46q0 82 -116 82q-10 0 -27.5 -4t-26.5 -4l-24 37l65 118q-203 41 -311 195q-102 143 -102 354z" />
<glyph unicode="&#xe8;" horiz-adv-x="1193" d="M66 514q0 264 141 422q147 166 407 166q176 0 330 -98q111 -70 164 -238q43 -133 43 -295h-764v-14q0 -111 66.5 -182.5t177.5 -71.5q102 0 166 49q53 43 104 141l238 -123q-78 -113 -138 -166q-76 -70 -186 -106.5t-209 -36.5q-252 0 -396 150.5t-144 402.5zM203 1475 h377l153 -273h-209zM389 666h436q-29 211 -213 211q-182 0 -223 -211z" />
<glyph unicode="&#xe9;" horiz-adv-x="1193" d="M66 514q0 264 141 422q147 166 407 166q176 0 330 -98q111 -70 164 -238q43 -133 43 -295h-764v-14q0 -111 66.5 -182.5t177.5 -71.5q102 0 166 49q53 43 104 141l238 -123q-78 -113 -138 -166q-76 -70 -186 -106.5t-209 -36.5q-252 0 -396 150.5t-144 402.5zM389 666 h436q-29 211 -213 211q-182 0 -223 -211zM467 1200l149 273h373l-315 -273h-207z" />
<glyph unicode="&#xea;" horiz-adv-x="1193" d="M66 514q0 264 141 422q147 166 407 166q176 0 330 -98q111 -70 164 -238q43 -133 43 -295h-764v-14q0 -111 66.5 -182.5t177.5 -71.5q102 0 166 49q53 43 104 141l238 -123q-78 -113 -138 -166q-76 -70 -186 -106.5t-209 -36.5q-252 0 -396 150.5t-144 402.5zM264 1204 l207 271h258l211 -269h-242l-98 127l-96 -129h-240zM389 666h436q-29 211 -213 211q-182 0 -223 -211z" />
<glyph unicode="&#xeb;" horiz-adv-x="1193" d="M66 514q0 264 141 422q147 166 407 166q176 0 330 -98q111 -70 164 -238q43 -133 43 -295h-764v-14q0 -111 66.5 -182.5t177.5 -71.5q102 0 166 49q53 43 104 141l238 -123q-78 -113 -138 -166q-76 -70 -186 -106.5t-209 -36.5q-252 0 -396 150.5t-144 402.5zM178 1223 v254h322v-254h-322zM389 666h436q-29 211 -213 211q-182 0 -223 -211zM692 1223v254h324v-254h-324z" />
<glyph unicode="&#xec;" horiz-adv-x="598" d="M-96 1475h377l153 -273h-207zM141 0v1069h312v-1069h-312z" />
<glyph unicode="&#xed;" horiz-adv-x="598" d="M141 0v1069h312v-1069h-312zM168 1200l149 273h373l-313 -273h-209z" />
<glyph unicode="&#xee;" horiz-adv-x="598" d="M-35 1204l207 271h260l211 -269h-244l-98 127l-94 -129h-242zM141 0v1069h312v-1069h-312z" />
<glyph unicode="&#xef;" horiz-adv-x="598" d="M-121 1223v254h322v-254h-322zM141 0v1069h312v-1069h-312zM395 1223v254h322v-254h-322z" />
<glyph unicode="&#xf0;" d="M63 563q0 225 113 369q121 156 342 155q168 0 285 -116v100h297v-1028q0 -131 -35 -205q-104 -221 -494 -221q-111 0 -215 27q-129 33 -188 96q-88 96 -88 260h326q0 -174 192 -174q109 0 152 50t41 161l-3 104q-141 -90 -282 -90q-217 0 -334 152q-109 139 -109 360z M289 1477h207q0 -127 106 -127q113 0 113 125h207q-4 -25 -15 -74q-20 -109 -108 -172q-80 -60 -195 -60q-86 0 -164 37q-88 43 -114.5 116t-36.5 155zM389 561q0 -272 201 -272q197 0 196 282q0 129 -34 195q-47 86 -166 86q-197 0 -197 -291z" />
<glyph unicode="&#xf1;" d="M143 0v1067h320v-92q109 121 301 121q127 0 223 -62q109 -70 109 -303v-731h-316v604q0 125 -18 168q-31 72 -135 72q-113 0 -148 -82q-20 -49 -20 -184v-578h-316zM250 1192q14 133 45 194q49 96 158 97q53 0 158.5 -46t140.5 -46q72 0 82 84h141q-16 -131 -43 -189 q-44 -94 -148 -94q-53 0 -163.5 47t-145.5 47q-59 0 -80 -94h-145z" />
<glyph unicode="&#xf2;" horiz-adv-x="1280" d="M66 535q0 262 151.5 414.5t413.5 152.5q166 0 321 -70q125 -55 197 -209q66 -137 65 -286q1 -109 -36 -215q-123 -354 -537 -355q-264 0 -419.5 151.5t-155.5 416.5zM246 1475h377l153 -273h-209zM383 539q0 -135 59 -222q68 -98 199 -98q125 0 193 92q61 84 61 213 q0 328 -248 328h-26q-150 0 -207 -147q-31 -78 -31 -166z" />
<glyph unicode="&#xf3;" horiz-adv-x="1280" d="M66 535q0 262 151.5 414.5t413.5 152.5q166 0 321 -70q125 -55 197 -209q66 -137 65 -286q1 -109 -36 -215q-123 -354 -537 -355q-264 0 -419.5 151.5t-155.5 416.5zM383 539q0 -135 59 -222q68 -98 199 -98q125 0 193 92q61 84 61 213q0 328 -248 328h-26 q-150 0 -207 -147q-31 -78 -31 -166zM508 1200l149 273h375l-315 -273h-209z" />
<glyph unicode="&#xf4;" horiz-adv-x="1280" d="M66 535q0 262 151.5 414.5t413.5 152.5q166 0 321 -70q125 -55 197 -209q66 -137 65 -286q1 -109 -36 -215q-123 -354 -537 -355q-264 0 -419.5 151.5t-155.5 416.5zM305 1204l209 271h258l211 -269h-242l-98 127l-96 -129h-242zM383 539q0 -135 59 -222q68 -98 199 -98 q125 0 193 92q61 84 61 213q0 328 -248 328h-26q-150 0 -207 -147q-31 -78 -31 -166z" />
<glyph unicode="&#xf5;" horiz-adv-x="1280" d="M66 535q0 262 151.5 414.5t413.5 152.5q166 0 321 -70q125 -55 197 -209q66 -137 65 -286q1 -109 -36 -215q-123 -354 -537 -355q-264 0 -419.5 151.5t-155.5 416.5zM270 1192q14 129 47 192q49 98 158 99q51 0 156.5 -46t142.5 -46q70 0 80 84h141q-12 -129 -41 -189 q-45 -94 -149 -94q-53 0 -160.5 47t-146.5 47q-80 0 -80 -94h-148zM383 539q0 -135 59 -222q68 -98 199 -98q125 0 193 92q61 84 61 213q0 328 -248 328h-26q-150 0 -207 -147q-31 -78 -31 -166z" />
<glyph unicode="&#xf6;" horiz-adv-x="1280" d="M66 535q0 262 151.5 414.5t413.5 152.5q166 0 321 -70q125 -55 197 -209q66 -137 65 -286q1 -109 -36 -215q-123 -354 -537 -355q-264 0 -419.5 151.5t-155.5 416.5zM225 1219v254h322v-254h-322zM383 539q0 -135 59 -222q68 -98 199 -98q125 0 193 92q61 84 61 213 q0 328 -248 328h-26q-150 0 -207 -147q-31 -78 -31 -166zM739 1219v254h324v-254h-324z" />
<glyph unicode="&#xf7;" horiz-adv-x="1482" d="M162 520v285h1157v-285h-1157zM586 92v318h307v-318h-307zM586 913v320h309v-320h-309z" />
<glyph unicode="&#xf8;" horiz-adv-x="1280" d="M20 61l156 140q-109 152 -108 344q0 250 150.5 402.5t399.5 152.5q227 0 398 -131l153 139l82 -94l-151 -137q113 -160 112 -355q0 -250 -160.5 -400.5t-412.5 -150.5q-215 0 -379 138l-156 -142zM373 541q0 -90 20 -142l424 387q-88 76 -182 76q-135 0 -203 -96 q-59 -84 -59 -225zM459 289q76 -76 184 -76q131 0 199 102q57 86 57 224q0 69 -18 137z" />
<glyph unicode="&#xf9;" d="M131 379v690h318v-678q0 -66 4 -80q10 -41 57 -65q41 -20 88 -21q182 0 182 178v666h314v-1069h-316v102q-109 -133 -309 -133q-193 0 -272 113q-66 94 -66 297zM223 1475h379l152 -273h-207z" />
<glyph unicode="&#xfa;" d="M131 379v690h318v-678q0 -66 4 -80q10 -41 57 -65q41 -20 88 -21q182 0 182 178v666h314v-1069h-316v102q-109 -133 -309 -133q-193 0 -272 113q-66 94 -66 297zM487 1200l150 273h373l-314 -273h-209z" />
<glyph unicode="&#xfb;" d="M131 379v690h318v-678q0 -66 4 -80q10 -41 57 -65q41 -20 88 -21q182 0 182 178v666h314v-1069h-316v102q-109 -133 -309 -133q-193 0 -272 113q-66 94 -66 297zM285 1204l207 271h260l211 -269h-242l-100 127l-95 -129h-241z" />
<glyph unicode="&#xfc;" d="M131 379v690h318v-678q0 -66 4 -80q10 -41 57 -65q41 -20 88 -21q182 0 182 178v666h314v-1069h-316v102q-109 -133 -309 -133q-193 0 -272 113q-66 94 -66 297zM199 1221v256h321v-256h-321zM713 1221v256h321v-256h-321z" />
<glyph unicode="&#xfd;" horiz-adv-x="598" d="M141 0v1069h312v-1069h-312z" />
<glyph unicode="&#xfe;" horiz-adv-x="1067" d="M-4 178l199 180q147 -147 313 -147q188 0 188 106q0 47 -221 109q-281 78 -289 84q-115 53 -114 235q0 207 204 306q111 53 244 53q246 0 479 -160l-194 -180q-137 106 -266 106q-152 0 -152 -84q0 -53 141 -84q49 -8 170 -34q319 -74 320 -322q0 -188 -166 -289 q-139 -86 -340 -86q-285 0 -516 207zM371 -279l57 48q57 -66 111 -66q29 0 50 19.5t21 46.5q0 82 -116 81q-10 0 -27.5 -4t-26.5 -4l-24 37l65 119l90 -10l-36 -78q41 6 81 6q66 0 110 -35t44 -98q0 -72 -61.5 -119t-135.5 -47q-111 0 -202 104z" />
<glyph unicode="&#xff;" horiz-adv-x="1024" d="M0 1069h336l176 -766l176 766h336l-377 -1155q-47 -147 -110 -207q-76 -76 -218 -76h-227v252h111q131 0 131 78q0 31 -53 203zM92 1223v254h324v-254h-324zM608 1223v254h322v-254h-322z" />
<glyph unicode="&#x152;" horiz-adv-x="2260" d="M86 731q0 180 57 338q68 188 195 277q199 137 410 137q152 0 307 -74v37h1091v-281h-729v-266h684v-278h-684v-334h799v-287h-1163v31q-166 -59 -316 -60q-201 0 -356.5 102.5t-226.5 286.5q-68 172 -68 371zM451 729q0 -207 79 -332q94 -150 289 -149q106 0 238 69v813 q-106 72 -232 72q-195 0 -290 -145q-84 -125 -84 -328z" />
<glyph unicode="&#x153;" horiz-adv-x="1921" d="M66 545q0 250 143 401.5t391 151.5q207 0 367 -142q156 143 387 144q172 0 302 -90t181 -252q47 -150 47 -287h-764q31 -254 258 -254q186 0 256 178l244 -127q-41 -59 -80 -116q-158 -182 -432 -183q-233 0 -395 162q-45 -47 -92 -80q-113 -78 -293 -78q-145 0 -275 74 q-141 78 -188 207q-57 154 -57 291zM377 541q0 -317 231 -318q111 0 168 109q45 84 45 209q0 315 -215 315q-119 0 -180 -104q-49 -84 -49 -211zM1124 666h435q-7 26 -13 55q-47 143 -209 143q-186 0 -213 -198z" />
<glyph unicode="&#x178;" horiz-adv-x="1449" d="M4 1446h414l311 -496l62 109l247 387h412l-547 -762v-684h-356v674zM332 1599v240h330v-240h-330zM788 1602v237h328v-237h-328z" />
<glyph unicode="&#x2c6;" horiz-adv-x="555" d="M-61 1204l206 271h261l210 -269h-241l-101 127l-94 -129h-241z" />
<glyph unicode="&#x2dc;" horiz-adv-x="555" d="M-86 1192q14 133 45 194q49 96 158 97q53 0 158.5 -46t140.5 -46q72 0 82 84h143q-16 -131 -43 -189q-43 -94 -147 -94q-53 0 -164 47t-146 47q-59 0 -80 -94h-147z" />
<glyph unicode="&#x2000;" horiz-adv-x="949" />
<glyph unicode="&#x2001;" horiz-adv-x="1898" />
<glyph unicode="&#x2002;" horiz-adv-x="949" />
<glyph unicode="&#x2003;" horiz-adv-x="1898" />
<glyph unicode="&#x2004;" horiz-adv-x="632" />
<glyph unicode="&#x2005;" horiz-adv-x="474" />
<glyph unicode="&#x2006;" horiz-adv-x="316" />
<glyph unicode="&#x2007;" horiz-adv-x="316" />
<glyph unicode="&#x2008;" horiz-adv-x="237" />
<glyph unicode="&#x2009;" horiz-adv-x="379" />
<glyph unicode="&#x200a;" horiz-adv-x="105" />
<glyph unicode="&#x2010;" horiz-adv-x="770" d="M78 485v293h612v-293h-612z" />
<glyph unicode="&#x2011;" horiz-adv-x="770" d="M78 485v293h612v-293h-612z" />
<glyph unicode="&#x2012;" horiz-adv-x="770" d="M78 485v293h612v-293h-612z" />
<glyph unicode="&#x2013;" horiz-adv-x="1282" d="M78 485v293h1126v-293h-1126z" />
<glyph unicode="&#x2014;" horiz-adv-x="1880" d="M78 485v293h1724v-293h-1724z" />
<glyph unicode="&#x2018;" horiz-adv-x="512" d="M94 762v319q0 152 88 253.5t238 123.5v-141q-111 -43 -127 -211h127v-344h-326z" />
<glyph unicode="&#x2019;" horiz-adv-x="512" d="M92 754v145q131 39 131 211h-131v336h326v-295q0 -285 -240 -379q-47 -18 -86 -18z" />
<glyph unicode="&#x201a;" horiz-adv-x="512" d="M92 0v344h328v-281q0 -180 -75 -275t-251 -142v145q68 25 96 82q18 37 27 127h-125z" />
<glyph unicode="&#x201c;" horiz-adv-x="980" d="M94 760v303q0 352 324 397v-145q-78 -23 -107 -80q-23 -45 -22 -133h129v-342h-324zM565 760v303q0 164 82 269.5t242 127.5v-145q-78 -23 -107 -80q-23 -45 -22 -133h129v-342h-324z" />
<glyph unicode="&#x201d;" horiz-adv-x="980" d="M94 748v145q78 25 107 78q23 43 22 133h-129v342h324v-303q0 -281 -240 -377q-47 -18 -84 -18zM565 748v145q78 25 107 78q23 43 22 133h-129v342h324v-303q0 -283 -238 -377q-45 -18 -86 -18z" />
<glyph unicode="&#x201e;" horiz-adv-x="980" d="M94 0v342h324v-303q0 -344 -324 -397v145q76 27 105 80q25 47 24 133h-129zM565 0v342h324v-303q0 -164 -80 -266q-84 -108 -244 -131v145q78 25 107 80q23 45 22 133h-129z" />
<glyph unicode="&#x2022;" horiz-adv-x="681" d="M86 463v508h510v-508h-510z" />
<glyph unicode="&#x2026;" horiz-adv-x="2048" d="M209 0v258h262v-258h-262zM893 0v258h262v-258h-262zM1577 0v258h260v-258h-260z" />
<glyph unicode="&#x202f;" horiz-adv-x="379" />
<glyph unicode="&#x2039;" horiz-adv-x="641" d="M137 0v1446h361v-1446h-361zM162 1612v243h313v-243h-313z" />
<glyph unicode="&#x203a;" horiz-adv-x="598" d="M141 0v1069h312v-1069h-312z" />
<glyph unicode="&#x205f;" horiz-adv-x="474" />
<glyph unicode="&#x2122;" horiz-adv-x="1507" d="M23 1307v139h555v-139h-187v-541h-176v541h-192zM653 766l2 680h258l111 -434l109 434h256l2 -680h-166l2 518l-133 -518h-142l-139 526l8 -526h-168z" />
<glyph unicode="&#xe000;" horiz-adv-x="1064" d="M0 0v1065h1065v-1065h-1065z" />
</font>
</defs>
</svg>
