<?xml version="1.0" standalone="no"?>
<!DOCTYPE svg PUBLIC "-//W3C//DTD SVG 1.1//EN" "http://www.w3.org/Graphics/SVG/1.1/DTD/svg11.dtd" >
<svg xmlns="http://www.w3.org/2000/svg">
<metadata></metadata>
<defs>
<font id="nissanagregularregular" horiz-adv-x="1067" >
<font-face units-per-em="2048" ascent="1638" descent="-410" />
<missing-glyph horiz-adv-x="555" />
<glyph horiz-adv-x="2048" />
<glyph horiz-adv-x="2048" />
<glyph unicode="&#xd;" horiz-adv-x="555" />
<glyph unicode=" "  horiz-adv-x="555" />
<glyph unicode="&#x09;" horiz-adv-x="555" />
<glyph unicode="&#xa0;" horiz-adv-x="555" />
<glyph unicode="!" horiz-adv-x="555" d="M236 0v184h161v-184h-161zM236 879v567h161v-590q-2 -14 -16 -184l-33 -371h-63z" />
<glyph unicode="&#x22;" horiz-adv-x="710" d="M90 1522h182l-57 -602h-65zM438 1522h180l-57 -602h-63z" />
<glyph unicode="#" horiz-adv-x="1366" d="M86 469v158h305l33 221h-291v158h311l64 438h164l-64 -438h226l65 438h160l-62 -438h283v-158h-303l-33 -221h285v-158h-307l-68 -469h-162l68 469h-228l-67 -469h-166l72 469h-285zM553 627h229l31 221h-227z" />
<glyph unicode="$" horiz-adv-x="1280" d="M41 418l209 24q59 -270 338 -317v518q-457 125 -457 420q0 182 141 291q123 94 316 112v226h137v-226l18 -6q76 -20 150 -43q66 -20 142.5 -80.5t101.5 -113.5q43 -88 55 -144l-191 -18q-14 57 -61 117.5t-98 90t-117 40.5v-484q504 -141 504 -444q0 -193 -160 -311 q-145 -107 -344 -107v-244h-137v244q-207 25 -393 166q-113 86 -154 289zM338 1090q0 -96 80 -154q45 -33 170 -72v451q-104 0 -174 -60q-76 -63 -76 -165zM725 119q182 0 254 114q37 59 37 119q0 135 -201 219q-31 12 -90 33v-485z" />
<glyph unicode="%" horiz-adv-x="1835" d="M53 926q0 182 74 313q88 160 258 160q176 0 266 -160q72 -127 72 -317q0 -188 -72 -312q-88 -151 -262 -151q-170 0 -260 155q-76 129 -76 312zM188 936q0 -358 203 -358q199 0 199 344q0 360 -201 360t-201 -346zM508 -6l651 1403l111 -54l-649 -1402zM1071 446 q0 324 168 424q86 51 160 52q174 0 264 -156q76 -129 76 -315q0 -190 -70 -316q-86 -153 -262 -153q-180 0 -266 149q-70 121 -70 315zM1202 453q0 -354 207 -355q197 0 197 346q0 357 -205 357q-199 0 -199 -348z" />
<glyph unicode="&#x26;" horiz-adv-x="1236" d="M78 379q0 104 53 206.5t139 155.5l146 90q-68 176 -68 265q0 143 88 241.5t230 98.5q131 0 217 -79t86 -208q0 -221 -285 -369q-20 -8 -29 -16q57 -139 205 -365q59 119 96 267h158l-4 -17l-12 -67q-25 -133 -97 -248l-45 -72q82 -106 201 -106q14 0 29 2l28 4v-170 q-32 -8 -73 -8q-172 0 -303 147q-131 -96 -162 -113q-76 -37 -201 -36q-170 0 -283.5 113.5t-113.5 283.5zM252 399q0 -109 73.5 -183.5t182.5 -74.5q115 0 233 107l-147 237q-70 111 -102 187l-9 18q-231 -100 -231 -291zM512 1133q0 -90 68 -226q227 98 227 260 q0 61 -37 102.5t-98 41.5q-72 0 -116 -52.5t-44 -125.5z" />
<glyph unicode="'" horiz-adv-x="362" d="M90 1522h182l-57 -602h-65z" />
<glyph unicode="(" horiz-adv-x="645" d="M82 657q0 373 174 635q113 168 225 264q39 33 101 78l67 -82q-117 -106 -256 -297q-121 -166 -121 -583q0 -262 93 -500q100 -262 288 -412l-65 -94l-45 37q-272 223 -396 551q-66 174 -65 403z" />
<glyph unicode=")" horiz-adv-x="653" d="M8 1546l68 94l45 -36q270 -221 395 -551q63 -168 64 -404q0 -203 -70 -411q-61 -186 -168 -320q-96 -123 -264 -246l-68 80q113 102 258 301q121 166 121 584q0 266 -90 500q-100 260 -291 409z" />
<glyph unicode="*" horiz-adv-x="714" d="M37 1178l35 116l209 -55v211h127v-215l210 70l44 -111l-213 -76l129 -170l-99 -76l-135 175l-121 -175l-102 74l121 174z" />
<glyph unicode="+" horiz-adv-x="1482" d="M193 537v159h458v467h180v-467h461v-159h-461v-469h-180v469h-458z" />
<glyph unicode="," horiz-adv-x="468" d="M129 0v223h203v-123q0 -233 -84 -419h-96q68 199 67 319h-90z" />
<glyph unicode="-" horiz-adv-x="757" d="M92 537v155h574v-155h-574z" />
<glyph unicode="." horiz-adv-x="468" d="M131 0v231h203v-231h-203z" />
<glyph unicode="/" horiz-adv-x="681" d="M27 0l477 1438h153l-473 -1438h-157z" />
<glyph unicode="0" horiz-adv-x="1193" d="M100 682q0 279 107 471q133 240 387 240q164 0 289 -111q117 -102 166 -266q47 -156 47 -326q0 -274 -109 -467q-133 -235 -387 -235q-260 0 -391 229q-109 186 -109 465zM283 692q0 -545 315 -545q180 0 258 201q55 139 55 352q0 203 -57 340q-80 191 -254 191 q-317 0 -317 -539z" />
<glyph unicode="1" horiz-adv-x="1193" d="M242 1010v127q158 0 231 45q92 55 121 198h137v-1380h-192v1010h-297z" />
<glyph unicode="2" horiz-adv-x="1193" d="M158 963q0 201 118.5 315.5t321.5 114.5q199 0 325 -120t126 -319q0 -141 -84 -288q-76 -133 -197 -234l-131 -108q-53 -43 -88 -68l-146 -98h662v-158h-903v176q119 55 315.5 220t272.5 274q109 156 108 295q0 127 -68.5 197.5t-193.5 70.5q-258 0 -258 -275 q0 -68 24 -161h-180q-25 94 -24 166z" />
<glyph unicode="3" horiz-adv-x="1193" d="M82 457h184q0 -162 78 -233.5t242 -71.5q305 0 305 247q0 246 -311 232l-127 -6v166l102 -5q125 -4 207 45q96 57 96 177q0 113 -86 176q-78 57 -194 57q-266 0 -267 -323l-182 8q14 162 47 237q47 113 163 171.5t241 58.5q199 0 323 -95q139 -102 139 -294 q0 -147 -73 -220q-29 -27 -95 -69q209 -96 209 -330q0 -127 -69 -223q-126 -174 -400 -174h-14q-238 0 -373 114q-145 121 -145 355z" />
<glyph unicode="4" horiz-adv-x="1193" d="M86 332v166l659 882h144v-893h201v-155h-201v-332h-178v332h-625zM272 487h439l8 619z" />
<glyph unicode="5" horiz-adv-x="1193" d="M96 430l183 12q14 -137 93 -217t214 -80q145 0 225 103q74 94 74 244q0 141 -80 228t-219 87q-199 0 -273 -178h-166l46 751h784v-161h-645l-19 -365q133 113 308 113q205 0 329.5 -137.5t124.5 -342.5q0 -221 -133 -360t-352 -139q-207 0 -340 118.5t-154 323.5z" />
<glyph unicode="6" horiz-adv-x="1193" d="M127 674q0 295 96 479q127 240 395 240q233 0 340 -154q53 -76 84 -203l-178 -24q-51 225 -239 225q-322 0 -322 -494q121 168 342 168q190 0 312 -128t122 -318q0 -207 -127 -342t-334 -135q-162 0 -284.5 98t-165.5 256q-41 147 -41 332zM332 449q0 -127 81 -212 t205 -85q129 0 205 86t76 217q0 127 -75.5 208.5t-200.5 81.5q-131 0 -211 -82.5t-80 -213.5z" />
<glyph unicode="7" horiz-adv-x="1193" d="M197 954v426h845v-198q1 -64 -79 -203l-72 -125q-276 -481 -330 -854h-217q31 233 160 500q84 174 266 456q27 41 80 123q41 66 41 138h-547v-263h-147z" />
<glyph unicode="8" horiz-adv-x="1193" d="M106 410q0 231 189 331q-154 96 -154 283q0 369 469 369q199 0 314 -84q129 -94 129 -287q0 -190 -156 -281l25 -16q170 -113 170 -307q0 -133 -70 -238q-129 -192 -412 -192h-14q-141 0 -252 49q-131 57 -186 172q-51 106 -52 201zM293 412q0 -125 94 -195 q84 -61 213 -61q131 0 216 65.5t85 194.5q0 243 -309 243q-129 0 -209 -57q-90 -66 -90 -190zM324 1028q0 -106 82 -164q74 -51 184 -51q279 0 278 215q1 207 -280 207q-264 0 -264 -207z" />
<glyph unicode="9" horiz-adv-x="1193" d="M106 915q0 211 129.5 341t339.5 130q274 0 400 -217q100 -172 100 -467q0 -223 -63 -405q-107 -309 -449 -309q-326 0 -413 344l178 35q51 -223 247 -224q170 0 259 164q68 129 67 316q-154 -176 -348 -177q-205 0 -326 131.5t-121 337.5zM289 903q0 -133 76.5 -213 t209.5 -80q131 0 218.5 76t87.5 205q0 147 -82.5 244.5t-227.5 97.5q-137 0 -213 -98q-70 -90 -69 -232z" />
<glyph unicode=":" horiz-adv-x="555" d="M217 0v231h203v-231h-203zM217 772v229h203v-229h-203z" />
<glyph unicode=";" horiz-adv-x="555" d="M219 0v227h203v-125q0 -225 -51 -350l-29 -69h-92q51 160 51 317h-82zM219 778v226h203v-226h-203z" />
<glyph unicode="&#x3c;" horiz-adv-x="1482" d="M233 526v183l953 481v-180l-787 -389l787 -388v-186z" />
<glyph unicode="=" horiz-adv-x="1482" d="M203 334v158h1077v-158h-1077zM203 717v160h1077v-160h-1077z" />
<glyph unicode="&#x3e;" horiz-adv-x="1482" d="M295 43v182l786 387l-786 387v187l952 -477v-185z" />
<glyph unicode="?" horiz-adv-x="1150" d="M145 965v14q0 133 50 242q57 127 165 176q135 61 242 61q197 0 336 -123t139 -317q0 -115 -58.5 -213.5t-160.5 -145.5q-59 -27 -170 -41v-311h-162v484q381 0 381 247q0 125 -94 199q-86 68 -215 68q-274 0 -274 -340h-179zM514 0v199h182v-199h-182z" />
<glyph unicode="@" horiz-adv-x="1835" d="M141 479q0 403 270.5 691t671.5 288q274 0 442.5 -157.5t168.5 -432.5q0 -341 -213 -589q-117 -135 -260 -136q-78 0 -124 48.5t-46 127.5q-135 -174 -295 -174q-135 0 -205 103q-61 88 -62 229q0 127 54 268q59 160 149 224q129 90 230 90q170 0 235 -172l31 127h139 l-67 -307q-57 -260 -58 -353q0 -88 64 -88q86 0 172 133q68 102 98 211q39 133 39 252q0 227 -135 356.5t-365 129.5q-348 0 -588 -263q-231 -252 -231 -604q0 -291 193 -461q182 -162 477 -161q379 0 686 299l67 -84q-328 -328 -751 -328q-205 0 -381 82 q-193 88 -299.5 253t-106.5 398zM651 487q0 -211 164 -211q92 0 172 91q68 80 92 178q27 109 27 186q0 82 -45 140.5t-127 58.5q-66 0 -148 -70q-61 -51 -100 -172q-35 -106 -35 -201z" />
<glyph unicode="A" horiz-adv-x="1323" d="M20 0l551 1446h201l526 -1446h-202l-158 442h-551l-162 -442h-205zM449 604h432l-211 604z" />
<glyph unicode="B" horiz-adv-x="1409" d="M158 0v1446h633q207 0 329 -80q147 -94 148 -289q0 -113 -57.5 -197.5t-163.5 -117.5q127 -33 195.5 -131.5t68.5 -231.5q0 -176 -111 -280q-123 -119 -377 -119h-665zM340 170h444q162 0 234 41q94 53 94 203q0 262 -308 262h-5l-459 -2v-504zM340 838h360q180 0 240 24 q125 51 125 207q0 109 -80 162q-69 47 -182 47l-463 -2v-438z" />
<glyph unicode="C" horiz-adv-x="1536" d="M100 727q0 344 194.5 550t539.5 206q242 0 409 -107q180 -113 248 -336l-195 -41q-45 156 -172 243t-293 87q-147 0 -274 -72q-137 -78 -184 -208q-59 -168 -60 -322q0 -262 125 -424q137 -180 391 -180q195 0 323 115.5t159 310.5l209 -25q-25 -116 -93 -225 q-209 -336 -620 -336q-332 0 -524 219q-182 209 -183 545z" />
<glyph unicode="D" horiz-adv-x="1449" d="M160 0v1446h534q219 0 348 -68q150 -80 228 -268t78 -387q0 -584 -469 -705q-63 -16 -164 -16h-56l-133 -2h-366zM358 168h289q176 0 279 51q121 59 176 211q49 133 49 285q0 448 -313 540q-70 20 -222 21h-258v-1108z" />
<glyph unicode="E" horiz-adv-x="1236" d="M162 0v1446h995v-170h-811v-447h705v-167h-705v-494h836v-168h-1020z" />
<glyph unicode="F" horiz-adv-x="1110" d="M160 0v1446h927v-172h-735v-426h684v-168h-684v-680h-192z" />
<glyph unicode="G" horiz-adv-x="1662" d="M102 705q0 344 203 561t545 217q225 0 402.5 -108.5t265.5 -311.5l-201 -53q-51 154 -175 233.5t-290 79.5q-254 0 -399 -176q-137 -164 -138 -422q0 -254 134 -418q145 -176 393 -176q121 0 237 45q135 51 191 141q80 127 80 273v12h-504v162h672v-764h-168v203 q-80 -119 -230 -183q-135 -57 -293 -57q-332 0 -528.5 205t-196.5 537z" />
<glyph unicode="H" horiz-adv-x="1492" d="M162 0v1446h190v-615h787v615h194v-1446h-194v662h-787v-662h-190z" />
<glyph unicode="I" horiz-adv-x="468" d="M137 0v1446h195v-1446h-195z" />
<glyph unicode="J" horiz-adv-x="768" d="M18 -16v211q66 -41 172 -41q150 0 193 86q29 57 29 227v979h196v-1088v-9q0 -108 -22 -165q-84 -221 -365 -221q-59 0 -203 21z" />
<glyph unicode="K" horiz-adv-x="1280" d="M137 0v1446h193v-707l686 707h237l-585 -598l610 -848h-236l-507 713l-205 -209v-504h-193z" />
<glyph unicode="L" d="M139 0v1446h193v-1274h700v-172h-893z" />
<glyph unicode="M" horiz-adv-x="1662" d="M139 0v1446h250l442 -1186l447 1186h250v-1446h-193l27 1212l-457 -1212h-149l-449 1194l21 -1194h-189z" />
<glyph unicode="N" horiz-adv-x="1449" d="M160 0v1446h182l782 -1159l-8 1159h174v-1446h-174l-792 1176l18 -1176h-182z" />
<glyph unicode="O" horiz-adv-x="1662" d="M104 741q0 328 200 535t527 207q332 0 531 -207t199 -539q0 -346 -193 -555q-199 -219 -541 -219t-536 221q-186 211 -187 557zM313 721q0 -266 129 -428q139 -178 400 -178q258 0 391 186q119 164 119 432q0 258 -125 418q-135 176 -387 176q-264 0 -402 -176 q-125 -160 -125 -430z" />
<glyph unicode="P" horiz-adv-x="1280" d="M156 0v1446h680q272 0 368 -191q53 -106 53 -219q0 -141 -67 -248q-74 -116 -203 -155q-68 -20 -201 -21h-444v-612h-186zM342 784h457q268 0 268 256q0 240 -264 240h-461v-496z" />
<glyph unicode="Q" horiz-adv-x="1662" d="M96 723q0 342 203 551t545 209q334 0 530 -217q186 -209 187 -547q0 -231 -86 -377l-48 -80l224 -192l-123 -144l-230 195q-211 -158 -471 -158q-334 0 -534 215q-197 209 -197 545zM307 723q0 -260 131 -424q141 -180 396 -180q256 0 393 178q127 162 127 424 q0 264 -125 430q-142 182 -398 182q-150 0 -280 -78q-139 -82 -186 -217q-57 -164 -58 -315z" />
<glyph unicode="R" horiz-adv-x="1366" d="M160 0v1446h618q301 0 406 -135q96 -123 96 -283q0 -106 -43 -203q-51 -113 -137 -148.5t-160 -49.5l406 -627h-230l-395 614h-373v-614h-188zM348 776h385q164 0 246 43q111 57 111 205q0 125 -76 193.5t-203 68.5h-463v-510z" />
<glyph unicode="S" horiz-adv-x="1366" d="M76 463l207 26q0 -180 120 -280q113 -94 295 -94q154 0 250 65q111 74 111 221q0 135 -123 197q-49 25 -246 68q-270 59 -364 110q-180 98 -181 303q0 127 84 232.5t207 138.5t244 33q139 0 268 -47q158 -57 211 -160q33 -63 82 -238l-194 -14q0 158 -111 238 q-97 71 -256 71h-4q-133 0 -221 -47q-111 -59 -111 -180q0 -109 94 -162q51 -29 193 -63l268 -66q367 -90 367 -397q0 -227 -181 -348q-155 -107 -393 -107q-168 0 -319 57q-184 70 -236 205q-61 164 -61 238z" />
<glyph unicode="T" horiz-adv-x="1110" d="M23 1278v168h1058v-168h-432v-1278h-192v1278h-434z" />
<glyph unicode="U" horiz-adv-x="1409" d="M154 481l2 70v895h192v-924q0 -395 348 -395q135 0 240 76q121 88 121 360v883h194v-924v-10q0 -134 -26 -211q-55 -168 -207 -256q-137 -82 -324 -82q-147 0 -295 68q-168 78 -206 207q-39 134 -39 233v10z" />
<glyph unicode="V" horiz-adv-x="1236" d="M23 1446h204l383 -1208l398 1208h204l-510 -1446h-190z" />
<glyph unicode="W" horiz-adv-x="2091" d="M37 1446h203l342 -1198l366 1198h189l381 -1198l337 1198h199l-442 -1446h-189l-381 1198l-368 -1198h-193z" />
<glyph unicode="X" horiz-adv-x="1280" d="M43 0l481 758l-454 688h229l338 -520l324 520h227l-443 -688l494 -758h-227l-375 588l-371 -588h-223z" />
<glyph unicode="Y" horiz-adv-x="1280" d="M29 1446h227l381 -612l385 612h229l-520 -784v-662h-194v662z" />
<glyph unicode="Z" horiz-adv-x="1236" d="M37 0v188l893 1082h-821v176h1040v-180l-889 -1092h909v-174h-1132z" />
<glyph unicode="[" horiz-adv-x="567" d="M139 -295v1890h377v-120h-213v-1649h213v-121h-377z" />
<glyph unicode="\" horiz-adv-x="681" d="M27 1438h157l473 -1438h-153z" />
<glyph unicode="]" horiz-adv-x="565" d="M47 -172h213v1649h-213v118h377v-1888h-377v121z" />
<glyph unicode="^" horiz-adv-x="1482" d="M231 588l418 858h187l415 -858h-186l-320 694l-321 -694h-193z" />
<glyph unicode="_" horiz-adv-x="1024" d="M-20 -281h1064v-161h-1064v161z" />
<glyph unicode="`" horiz-adv-x="555" d="M143 1362h183l86 -295h-99z" />
<glyph unicode="a" horiz-adv-x="1024" d="M66 248q0 98 68.5 180t165.5 100.5t409 49.5v18q0 141 -37 201q-46 73 -179 73h-4q-205 0 -204 -182v-20l-170 10q0 158 110 242q99 75 258 75h4q109 0 207 -39q121 -49 149.5 -136t28.5 -193v-353q0 -72 7 -92q14 -47 65 -47q18 0 51 8v-137q-55 -18 -108 -18 q-143 0 -164 143q-137 -158 -326 -158q-137 0 -229 68q-102 74 -102 207zM246 254q0 -72 57 -111q48 -32 121 -32h4q131 1 209 77q74 73 74 194v13l-2 76q-141 -18 -172 -25q-109 -18 -166 -43q-125 -51 -125 -149z" />
<glyph unicode="b" horiz-adv-x="1150" d="M133 0v1446h164v-615q125 164 336 164q205 0 328 -145q113 -137 112 -346q0 -236 -104 -377q-117 -158 -344 -158q-205 0 -328 156v-125h-164zM293 473q0 -156 72 -254q79 -110 228 -110h3q156 0 235 118q68 100 68 262q0 154 -72 250q-77 107 -227 107q-154 0 -235 -115 q-72 -100 -72 -258z" />
<glyph unicode="c" d="M80 473q0 227 117 369q124 153 345 153h3q172 0 289 -77q129 -84 159 -246l-180 -19q-39 223 -264 224q-289 0 -289 -402q0 -164 70 -264q80 -115 237 -115q229 0 269 269l176 -17q-64 -379 -455 -379q-221 0 -349 140.5t-128 363.5z" />
<glyph unicode="d" horiz-adv-x="1150" d="M80 504q0 209 117 346q123 145 327 145q215 0 330 -157v608h164v-1446h-164v125q-125 -156 -332 -156q-133 0 -243 70q-119 74 -156 197q-43 145 -43 268zM256 487q0 -372 297 -372h2q154 0 233 112q70 98 70 258q0 152 -72 250q-80 111 -225 111q-152 0 -231 -107 q-74 -96 -74 -252z" />
<glyph unicode="e" d="M80 481q0 154 57 273q66 135 195 190q119 51 213 51q221 0 338 -155q106 -139 106 -367v-18h-733v-17q0 -143 78 -239q84 -106 223 -107q213 0 266 225l166 -22l-31 -82q-1 -4 -26 -43q-129 -201 -369 -201q-229 0 -358 144q-125 137 -125 368zM260 571h551 q0 125 -76.5 211t-199.5 86q-121 0 -195 -90q-68 -82 -80 -207z" />
<glyph unicode="f" horiz-adv-x="555" d="M23 829v136h159v155q0 154 49 226q59 90 205 90q39 0 119 -13v-129q-47 11 -90 11q-123 0 -123 -162v-178h182v-136h-182v-829h-160v829h-159z" />
<glyph unicode="g" horiz-adv-x="1150" d="M84 471q0 227 104 367q116 157 333 157h3h8q174 0 316 -161v131h170v-951q0 -176 -43 -272q-49 -109 -170 -164q-103 -47 -236 -47q-186 0 -305 84q-135 94 -135 274h184q0 -115 78 -172q72 -53 189 -53q111 0 184 49q84 55 84 260v166q-137 -170 -320 -170 q-209 0 -329 150q-115 139 -115 352zM252 481q0 -164 70 -258q78 -106 235 -106q156 0 231 116q66 98 66 263q0 158 -74 249q-79 103 -233 103q-145 0 -225 -115q-70 -100 -70 -252z" />
<glyph unicode="h" d="M135 0v1446h164v-578q127 127 299 127q98 0 182 -43q98 -49 125 -133q33 -102 33 -209v-610h-166v575q0 88 -10 130q-16 68 -70.5 107.5t-126.5 39.5q-86 0 -153.5 -46t-90 -126t-22.5 -188v-492h-164z" />
<glyph unicode="i" horiz-adv-x="425" d="M141 0v965h158v-965h-158zM141 1257v189h158v-189h-158z" />
<glyph unicode="j" horiz-adv-x="425" d="M-47 -315q18 0 37 -2l37 -5q72 0 92 39q14 27 14 105v1143h160v-1211q-1 -223 -232 -223q-35 0 -108 8v146zM133 1255v191h160v-191h-160z" />
<glyph unicode="k" horiz-adv-x="937" d="M133 0v1446h166v-891l385 410h201l-359 -381l441 -584h-205l-346 463l-117 -123v-340h-166z" />
<glyph unicode="l" horiz-adv-x="425" d="M137 0v1446h156v-1446h-156z" />
<glyph unicode="m" horiz-adv-x="1579" d="M131 0v965h154v-131q138 161 291 161h2q154 0 233 -135q10 -16 25 -43q160 178 321 178q84 0 163 -50t103.5 -126t24.5 -178v-641h-162l2 594q0 117 -31 172q-41 74 -147 74q-66 0 -130.5 -37t-92.5 -94q-20 -41 -21 -111v-598h-159v621q0 219 -179 219q-61 0 -129 -35 q-76 -39 -94 -90q-20 -57 -20 -142v-573h-154z" />
<glyph unicode="n" d="M131 0v965h164v-142q102 172 303 172q90 0 180 -47q100 -51 125 -129q29 -90 29 -182v-637h-162l2 614q0 227 -225 228q-68 0 -137.5 -40t-90.5 -100q-24 -71 -24 -147v-6v-549h-164z" />
<glyph unicode="o" horiz-adv-x="1110" d="M82 481q0 225 127 369.5t350 144.5q221 0 348 -147q121 -139 121 -365q0 -223 -123 -364q-129 -150 -348 -150q-225 0 -352 146q-123 139 -123 366zM260 471q0 -158 68 -256q78 -115 229 -115q295 0 295 398q0 366 -285 366q-162 0 -239 -121q-68 -102 -68 -272z" />
<glyph unicode="p" horiz-adv-x="1150" d="M133 -459v1424h160v-140q137 170 346 170q129 0 231.5 -72.5t153.5 -193.5q47 -113 47 -246q0 -221 -113 -360q-122 -154 -337 -154q-211 0 -328 144v-572h-160zM293 461q0 -150 76 -244q84 -104 229 -104q156 0 236 108q69 93 69 251q0 159 -69 257q-81 113 -228 113 q-156 0 -239 -117q-74 -102 -74 -264z" />
<glyph unicode="q" horiz-adv-x="1150" d="M131 739q59 143 180 203q109 53 207 53q217 0 334 -174v144h166v-1426h-166v576q-119 -145 -332 -146q-211 0 -330 146q-108 134 -108 346q0 158 49 278zM260 471q0 -369 301 -369q145 0 227 101q76 92 76 241q0 170 -67 275q-78 123 -240 123q-297 0 -297 -371z" />
<glyph unicode="r" horiz-adv-x="641" d="M133 0v965h164v-177q104 188 330 189v-176q-18 4 -39 4h-35q-80 0 -145.5 -41t-88 -112.5t-22.5 -170.5v-481h-164z" />
<glyph unicode="s" horiz-adv-x="980" d="M63 311l187 29q0 -246 266 -246q227 0 227 162q0 90 -90 127q-20 8 -170 39q-190 39 -254 74q-125 68 -125 211q0 147 119 223q99 65 251 65h5q162 0 273 -77q123 -86 139 -240l-176 -23q0 78 -25.5 120t-97.5 68.5t-133 26.5q-76 0 -129 -32q-63 -39 -64 -109 q0 -78 240 -158q80 -27 319 -100q90 -41 90 -197q0 -152 -133 -235q-114 -70 -274 -70q-397 0 -445 342z" />
<glyph unicode="t" horiz-adv-x="598" d="M33 829v136h155v305h168v-305h174v-136h-174v-606q0 -57 9 -76q14 -34 58 -34h3q31 0 104 22v-135q-102 -16 -151 -16q-106 0 -148.5 39.5t-42.5 144.5v661h-155z" />
<glyph unicode="u" d="M133 322v643h162v-613q0 -223 199 -223q137 0 208 88q68 82 68 223v525h160v-965h-160v147q-31 -33 -59 -65q-117 -106 -275 -107q-88 0 -162 41q-80 45 -110.5 122t-30.5 184z" />
<glyph unicode="v" horiz-adv-x="894" d="M25 965h170l256 -740l254 740h167l-348 -965h-147z" />
<glyph unicode="w" horiz-adv-x="1492" d="M23 965h176l241 -717l238 717h143l228 -717l251 717h173l-355 -965h-143l-232 719l-235 -719h-150z" />
<glyph unicode="x" horiz-adv-x="811" d="M18 0l299 489l-284 476h188l193 -332l194 332h185l-291 -476l291 -489h-185l-205 344l-200 -344h-185z" />
<glyph unicode="y" horiz-adv-x="894" d="M18 -309q45 -16 101 -17q80 0 123 45q31 35 61 121l53 154l-327 971h174l241 -766l256 766h170l-405 -1141q-53 -152 -98 -209q-72 -92 -199 -92q-80 0 -150 20v148z" />
<glyph unicode="z" horiz-adv-x="854" d="M27 0v135l555 688h-502v142h704v-131l-561 -699h574v-135h-770z" />
<glyph unicode="{" horiz-adv-x="575" d="M35 590v123q104 0 143 57q31 47 31 160v342q0 115 29 233q23 90 233 97l78 2v-119h-35q-88 0 -119 -53q-20 -37 -20 -138v-368q0 -121 -29 -172q-35 -63 -139 -105q61 -20 106 -59q61 -53 62 -215v-338q0 -106 16 -170q12 -51 125 -51h33v-119h-78q-246 0 -260 227 q-2 31 -2 105v342q0 121 -27 159q-33 47 -147 60z" />
<glyph unicode="|" horiz-adv-x="483" d="M158 -293v1888h164v-1888h-164z" />
<glyph unicode="}" horiz-adv-x="575" d="M25 -184h34q113 0 131 75q10 45 11 146l-2 336q0 119 31.5 177t136.5 101q-170 43 -168 275l2 368q0 63 -17 131q-14 57 -127 58h-32v119h77q211 0 248 -152q16 -66 17 -180v-10l-2 -332q0 -115 28 -158q35 -49 146 -59v-123q-137 -14 -162 -88q-12 -39 -12 -129l2 -342 q0 -102 -29 -228q-25 -104 -234 -104h-79v119z" />
<glyph unicode="~" horiz-adv-x="1482" d="M152 588q49 72 143 155q57 51 180 52q84 0 273 -84l92 -41q115 -51 161 -52q111 0 240 150l92 -123q-86 -104 -147 -143q-96 -61 -191 -62q-86 0 -245 78l-72 35q-131 63 -213 63t-131 -51q-25 -25 -78 -88l-12 -14z" />
<glyph unicode="&#xa1;" horiz-adv-x="555" d="M158 0v590l49 555h63l33 -385l16 -193v-567h-161zM158 1262v184h161v-184h-161z" />
<glyph unicode="&#xa2;" horiz-adv-x="1024" d="M57 485q0 125 52 244q59 137 159 186q115 55 207 70v197h121v-195q283 -39 375 -323l-185 -17q-14 162 -190 207v-745q215 39 215 260l180 -17q-73 -342 -395 -377v-211h-123v211q-156 27 -258 115q-74 63 -117 180q-41 109 -41 215zM231 485q0 -86 27 -174 q33 -111 90 -143q98 -57 125 -57v747q-242 -72 -242 -373z" />
<glyph unicode="&#xa3;" horiz-adv-x="1366" d="M74 575v134h268l-33 57q-92 162 -92 285q0 207 172 327q152 104 369 105q213 0 357.5 -125t144.5 -336l-216 -23l5 39q0 133 -86 215t-220 82q-129 0 -213 -65q-92 -72 -92 -199q0 -109 51 -190q2 -4 107 -172h428v-134h-354q43 -121 43 -188q0 -72 -23 -158 q125 -84 254 -84q94 0 148.5 61.5t54.5 158.5l190 -13q-14 -160 -98 -262q-92 -115 -246 -115q-96 0 -194 35q-4 2 -185 78q-49 -35 -90 -63q-82 -55 -194 -56q-94 0 -160 45q-76 51 -76 142q0 88 70 137q61 43 153 43q90 0 205 -37l4 33q0 106 -90 243h-362zM256 143 q0 -49 66 -49q80 0 143 64l-12 4q-92 31 -131 31q-66 0 -66 -50z" />
<glyph unicode="&#xa4;" horiz-adv-x="1150" d="M84 471q0 227 104 367q117 158 336 157h8q174 0 316 -161v131h170v-951q0 -176 -43 -272q-49 -109 -170 -164q-103 -47 -236 -47q-186 0 -305 84q-135 94 -135 274h184q0 -115 78 -172q72 -53 189 -53q111 0 184 49q84 55 84 260v166q-137 -170 -320 -170 q-209 0 -329 150q-115 139 -115 352zM252 481q0 -164 70 -258q78 -106 235 -106q156 0 231 116q66 98 66 263q0 158 -74 249q-79 103 -233 103q-145 0 -225 -115q-70 -100 -70 -252zM283 1341h102q37 -131 160 -131q100 0 137 86q14 33 14 45h109q-7 -131 -107 -211 q-72 -55 -155 -55q-111 0 -185.5 78t-74.5 188z" />
<glyph unicode="&#xa5;" horiz-adv-x="1280" d="M29 1386h229l379 -587l387 587h227l-350 -505h229v-148h-325l-78 -106h403v-148h-399v-479h-192v479h-398v148h398l-66 104h-332v146h232z" />
<glyph unicode="&#xa6;" horiz-adv-x="516" d="M174 -281v822h168v-822h-168zM174 784v824h168v-824h-168z" />
<glyph unicode="&#xa7;" horiz-adv-x="1280" d="M76 760q0 203 194 313q-86 86 -86 182q0 100 63.5 178t162.5 113q92 33 186 33h12q174 0 365 -88l133 -61l-82 -146q-254 145 -420 146q-84 0 -149 -31q-84 -39 -84 -113q0 -63 57 -104q25 -16 117 -52l172 -63q221 -82 325 -160q164 -123 164 -299q1 -215 -192 -321 q102 -90 102 -205q0 -88 -55 -166t-137 -117q-102 -49 -228 -49q-203 0 -534 166l82 152q221 -156 458 -156q82 0 140 31q72 39 71 114q0 92 -90 131q-139 59 -495 224q-252 123 -252 348zM262 780q0 -84 88 -157q47 -39 246 -131l254 -117q74 27 126 85t52 130 q1 131 -235 248q-35 16 -230 96l-131 53q-66 -23 -115 -80q-55 -61 -55 -127z" />
<glyph unicode="&#xa8;" horiz-adv-x="555" d="M-14 1108v211h178v-211h-178zM387 1108v211h182v-211h-182z" />
<glyph unicode="&#xa9;" horiz-adv-x="1720" d="M131 723q0 307 212 518t519 211q299 0 513 -208t214 -507q0 -319 -206 -531t-525 -212q-307 0 -517 211t-210 518zM205 721q0 -279 188.5 -468.5t466.5 -189.5q270 0 463 188.5t193 457.5q0 291 -183.5 482t-472.5 191q-276 0 -465.5 -192.5t-189.5 -468.5zM438 707 q0 209 121 351t328 142q281 0 375 -282l-138 -39q-41 100 -86 139q-53 49 -153 49q-147 0 -226 -106q-70 -94 -69 -246q0 -141 65 -234q76 -100 213 -100q197 0 262 213l140 -29q-93 -321 -404 -321q-199 0 -315 133q-113 127 -113 330z" />
<glyph unicode="&#xaa;" horiz-adv-x="641" d="M61 1020q0 201 371 201v22q0 143 -115 143q-117 0 -116 -120l-113 8l21 82q49 115 206 114q219 0 220 -202v-234q0 -72 45 -71q20 0 30 10v-94q-30 -13 -63 -13q-78 0 -109 76q-78 -84 -196 -84q-78 0 -129.5 43t-51.5 119zM180 1024q0 -78 101 -78q72 0 111.5 46 t39.5 120v35q-84 -10 -121 -19q-131 -27 -131 -104z" />
<glyph unicode="&#xab;" horiz-adv-x="811" d="M86 512v174l276 240v-187l-159 -139l159 -137v-182zM410 520v170l274 238v-183l-164 -145l164 -135v-176z" />
<glyph unicode="&#xac;" horiz-adv-x="1482" d="M143 535v163h1160v-686h-183v523h-977z" />
<glyph unicode="&#xad;" horiz-adv-x="757" d="M92 537v155h574v-155h-574z" />
<glyph unicode="&#xae;" horiz-adv-x="1720" d="M131 723q0 307 212 518t519 211q299 0 513 -208t214 -507q0 -319 -206 -531t-525 -212q-307 0 -517 211t-210 518zM207 721q0 -281 186.5 -469.5t466.5 -188.5q270 0 463 188.5t193 457.5q0 291 -183.5 482t-472.5 191q-279 0 -466 -191.5t-187 -469.5zM575 262v922h267 q158 0 233 -51q92 -63 92 -213q0 -205 -196 -258l209 -400h-158l-195 387h-110v-387h-142zM719 774h117q188 0 188 144q0 141 -203 141h-102v-285z" />
<glyph unicode="&#xaf;" horiz-adv-x="555" d="M-14 1108v139h583v-139h-583z" />
<glyph unicode="&#xb0;" horiz-adv-x="724" d="M33 1217q0 137 96 233t233 96q141 0 235.5 -94t94.5 -235q0 -139 -95.5 -235.5t-234.5 -96.5t-234 96t-95 236zM201 1221q0 -68 47 -115t114 -47q68 0 115 47t47 115t-47 114.5t-115 46.5t-114.5 -47t-46.5 -114z" />
<glyph unicode="&#xb1;" horiz-adv-x="1482" d="M190 162h1100v-162h-1097zM193 727v160h458v444h180v-444h461v-160h-461v-448h-180v448h-458z" />
<glyph unicode="&#xb2;" horiz-adv-x="768" d="M90 477v125q463 279 463 516q0 76 -48 120t-124 44q-162 0 -162 -178q0 -35 17 -107h-134q-12 55 -12 109q0 135 83 214t218 79q131 0 214 -77t83 -206q0 -250 -418 -524h428v-115h-608z" />
<glyph unicode="&#xb3;" horiz-adv-x="768" d="M43 770h137q0 -193 211 -192q184 0 184 155q0 88 -63 121q-45 25 -141 25h-58v120q119 0 160 15q80 29 80 121q0 70 -50 108.5t-122 38.5q-176 0 -176 -213l-133 2q0 328 307 328q133 0 217 -66q94 -72 94 -200q0 -139 -147 -187q176 -41 176 -215q0 -131 -98 -205 q-89 -67 -224 -67q-162 0 -254 73q-100 80 -100 238z" />
<glyph unicode="&#xb4;" horiz-adv-x="555" d="M147 1069l84 295h177l-177 -295h-84z" />
<glyph unicode="&#xb6;" horiz-adv-x="1314" d="M156 1042q0 291 256 377q80 27 202 27h461v-111h-67v-1677h-117v1677h-299v-1677h-117v1004q-201 31 -272 182q-47 98 -47 198z" />
<glyph unicode="&#xb7;" horiz-adv-x="409" d="M100 467v254h209v-254h-209z" />
<glyph unicode="&#xb8;" horiz-adv-x="555" d="M139 -197l150 230l59 -15l-59 -106q86 -47 92 -53q35 -31 35 -99q0 -94 -88 -139q-70 -37 -172 -37v47l14 -2q92 0 92 74q0 61 -123 100z" />
<glyph unicode="&#xb9;" horiz-adv-x="768" d="M164 1147v92q96 0 146 36t65 126h102v-924h-137v670h-176z" />
<glyph unicode="&#xba;" horiz-adv-x="681" d="M53 1155q0 135 79 223t212 88q131 0 211 -90q74 -86 74 -219q0 -131 -78 -217t-207 -86q-135 0 -213 83t-78 218zM170 1157q0 -213 174 -213q168 0 168 217q0 213 -172 213q-170 0 -170 -217z" />
<glyph unicode="&#xbb;" horiz-adv-x="811" d="M127 274v185l164 143l-164 137v174l274 -231v-170zM446 279v184l162 141l-162 135v183l277 -232v-172z" />
<glyph unicode="&#xbc;" horiz-adv-x="1792" d="M164 1147v92q96 0 146 36t65 126h102v-924h-137v670h-176zM508 -6l651 1403l111 -54l-649 -1402zM1069 223v119l438 580h109v-584h131v-115h-133v-223h-129v223h-416zM1206 338h281l4 391z" />
<glyph unicode="&#xbd;" horiz-adv-x="1792" d="M164 1147v92q96 0 146 36t65 126h102v-924h-137v670h-176zM459 -6l651 1403l111 -54l-650 -1402zM1114 0v125q160 86 293 215q170 166 170 303q0 76 -48 120t-124 44q-162 0 -162 -180q0 -39 17 -105h-134q-12 53 -12 107q0 137 82 215t219 78q131 0 213 -77t82 -206 q0 -254 -416 -522h428v-117h-608z" />
<glyph unicode="&#xbe;" horiz-adv-x="1792" d="M43 770h137q0 -193 211 -192q184 0 184 155q0 88 -63 121q-45 25 -141 25h-58v120q119 0 160 15q80 29 80 121q0 70 -50 108.5t-122 38.5q-176 0 -176 -213l-133 2q0 328 307 328q133 0 217 -66q94 -72 94 -200q0 -139 -147 -187q176 -41 176 -215q0 -131 -98 -205 q-89 -67 -224 -67q-162 0 -254 73q-100 80 -100 238zM596 -6l651 1403l111 -54l-649 -1402zM1069 223v119l438 580h109v-584h131v-115h-133v-223h-129v223h-416zM1206 338h281l4 391z" />
<glyph unicode="&#xbf;" horiz-adv-x="1150" d="M76 432q0 102 51 201q55 111 143 145q121 49 195 49v312h160v-484q-121 0 -181 -12q-90 -18 -145 -79.5t-55 -151.5q0 -127 94 -201q88 -70 217 -70q272 0 272 336h181v-16q0 -209 -124 -341t-333 -132q-199 0 -334 123q-141 125 -141 321zM455 1247v199h182v-199h-182z " />
<glyph unicode="&#xc0;" horiz-adv-x="1323" d="M20 0l551 1446h201l526 -1446h-202l-158 442h-551l-162 -442h-205zM446 1833h205l97 -254h-123zM449 604h432l-211 604z" />
<glyph unicode="&#xc1;" horiz-adv-x="1323" d="M20 0l551 1446h201l526 -1446h-202l-158 442h-551l-162 -442h-205zM449 604h432l-211 604zM575 1579l99 254h203l-179 -254h-123z" />
<glyph unicode="&#xc2;" horiz-adv-x="1323" d="M20 0l551 1446h201l526 -1446h-202l-158 442h-551l-162 -442h-205zM385 1579l207 254h133l219 -254h-158l-127 152l-120 -152h-154zM449 604h432l-211 604z" />
<glyph unicode="&#xc3;" horiz-adv-x="1323" d="M20 0l551 1446h201l526 -1446h-202l-158 442h-551l-162 -442h-205zM362 1610q39 203 179 202q43 0 131 -34.5t125 -34.5q47 0 67 63h97q-37 -204 -170 -204q-45 0 -138.5 35.5t-124.5 35.5q-51 0 -65 -63h-101zM449 604h432l-211 604z" />
<glyph unicode="&#xc4;" horiz-adv-x="1323" d="M20 0l551 1446h201l526 -1446h-202l-158 442h-551l-162 -442h-205zM377 1599v209h178v-209h-178zM449 604h432l-211 604zM778 1599v209h178v-209h-178z" />
<glyph unicode="&#xc5;" horiz-adv-x="1323" d="M20 0l551 1446h201l526 -1446h-202l-158 442h-551l-162 -442h-205zM449 604h432l-211 604zM475 1737q0 80 57.5 137t137.5 57q84 0 140 -55t56 -139q0 -82 -57 -138.5t-139 -56.5q-80 0 -137.5 57.5t-57.5 137.5zM567 1739q0 -45 29 -75t74 -30t74.5 30t29.5 75 t-29.5 73.5t-74.5 28.5q-41 0 -72 -30.5t-31 -71.5z" />
<glyph unicode="&#xc6;" horiz-adv-x="2134" d="M-4 0l989 1446h1067v-170h-809v-473h653v-162h-653v-473h834v-168h-1024v475h-516l-316 -475h-225zM649 641h404v619z" />
<glyph unicode="&#xc7;" horiz-adv-x="1536" d="M100 727q0 344 194.5 550t539.5 206q242 0 409 -107q180 -113 248 -336l-195 -41q-51 158 -174 244t-291 86q-147 0 -264 -67q-123 -72 -184 -201q-70 -150 -70 -334q0 -262 125 -424q137 -180 391 -180q195 0 323 115.5t159 310.5l209 -25q-35 -174 -152 -313 q-201 -242 -506 -242l-33 -57q43 -27 89 -55q39 -35 38 -97q0 -94 -88 -139q-70 -37 -172 -37v47l15 -2q92 0 92 74q0 66 -123 100l106 162q-141 14 -184 25q-55 12 -176 65q-152 68 -246 291q-80 190 -80 381z" />
<glyph unicode="&#xc8;" horiz-adv-x="1236" d="M162 0v1446h995v-170h-811v-447h705v-167h-705v-494h836v-168h-1020zM426 1833h203l96 -254h-121z" />
<glyph unicode="&#xc9;" horiz-adv-x="1236" d="M162 0v1446h995v-170h-811v-447h705v-167h-705v-494h836v-168h-1020zM553 1579l98 254h203l-178 -254h-123z" />
<glyph unicode="&#xca;" horiz-adv-x="1236" d="M162 0v1446h995v-170h-811v-447h705v-167h-705v-494h836v-168h-1020zM375 1579l207 254h133l219 -254h-158l-127 152l-121 -152h-153z" />
<glyph unicode="&#xcb;" horiz-adv-x="1236" d="M162 0v1446h995v-170h-811v-447h705v-167h-705v-494h836v-168h-1020zM360 1599v209h179v-209h-179zM762 1599v209h180v-209h-180z" />
<glyph unicode="&#xcc;" horiz-adv-x="468" d="M20 1833h203l96 -254h-120zM137 0v1446h195v-1446h-195z" />
<glyph unicode="&#xcd;" horiz-adv-x="468" d="M137 0v1446h195v-1446h-195zM150 1579l98 254h201l-177 -254h-122z" />
<glyph unicode="&#xce;" horiz-adv-x="468" d="M-41 1579l207 254h133l219 -254h-158l-127 152l-120 -152h-154zM137 0v1446h195v-1446h-195z" />
<glyph unicode="&#xcf;" horiz-adv-x="468" d="M-55 1599v209h178v-209h-178zM137 0v1446h195v-1446h-195zM346 1599v209h178v-209h-178z" />
<glyph unicode="&#xd0;" horiz-adv-x="1662" d="M102 705q0 344 203 561t545 217q225 0 402.5 -108.5t265.5 -311.5l-201 -53q-51 154 -175 233.5t-290 79.5q-254 0 -399 -176q-137 -164 -138 -422q0 -254 134 -418q145 -176 393 -176q121 0 237 45q135 51 191 141q80 127 80 273v12h-504v162h672v-764h-168v203 q-80 -119 -230 -183q-135 -57 -293 -57q-332 0 -528.5 205t-196.5 537zM590 1874h102q37 -131 160 -131q100 0 137 86q14 33 15 45h108q-6 -131 -106 -211q-72 -55 -156 -55q-111 0 -185.5 77.5t-74.5 188.5z" />
<glyph unicode="&#xd1;" horiz-adv-x="1449" d="M160 0v1446h182l782 -1159l-8 1159h174v-1446h-174l-792 1176l18 -1176h-182zM428 1610q18 203 178 202q41 0 127 -34.5t127 -34.5q51 0 68 63h96q-29 -204 -170 -204q-45 0 -138 35.5t-122 35.5q-57 0 -68 -63h-98z" />
<glyph unicode="&#xd2;" horiz-adv-x="1662" d="M104 741q0 328 200 535t527 207q332 0 531 -207t199 -539q0 -346 -193 -555q-199 -219 -541 -219t-536 221q-186 211 -187 557zM313 721q0 -266 129 -428q139 -178 400 -178q258 0 391 186q119 164 119 432q0 258 -125 418q-135 176 -387 176q-264 0 -402 -176 q-125 -160 -125 -430zM618 1833h203l97 -254h-121z" />
<glyph unicode="&#xd3;" horiz-adv-x="1662" d="M104 741q0 328 200 535t527 207q332 0 531 -207t199 -539q0 -346 -193 -555q-199 -219 -541 -219t-536 221q-186 211 -187 557zM313 721q0 -266 129 -428q139 -178 400 -178q258 0 391 186q119 164 119 432q0 258 -125 418q-135 176 -387 176q-264 0 -402 -176 q-125 -160 -125 -430zM745 1579l99 254h203l-179 -254h-123z" />
<glyph unicode="&#xd4;" horiz-adv-x="1662" d="M104 741q0 328 200 535t527 207q332 0 531 -207t199 -539q0 -346 -193 -555q-199 -219 -541 -219t-536 221q-186 211 -187 557zM313 721q0 -266 129 -428q139 -178 400 -178q258 0 391 186q119 164 119 432q0 258 -125 418q-135 176 -387 176q-264 0 -402 -176 q-125 -160 -125 -430zM557 1579l205 254h133l221 -254h-158l-127 152l-122 -152h-152z" />
<glyph unicode="&#xd5;" horiz-adv-x="1662" d="M104 741q0 328 200 535t527 207q332 0 531 -207t199 -539q0 -346 -193 -555q-199 -219 -541 -219t-536 221q-186 211 -187 557zM313 721q0 -266 129 -428q139 -178 400 -178q258 0 391 186q119 164 119 432q0 258 -125 418q-135 176 -387 176q-264 0 -402 -176 q-125 -160 -125 -430zM535 1610q18 203 178 202q41 0 127 -34.5t127 -34.5q51 0 67 63h96q-28 -204 -169 -204q-45 0 -138.5 35.5t-122.5 35.5q-57 0 -67 -63h-98z" />
<glyph unicode="&#xd6;" horiz-adv-x="1662" d="M104 741q0 328 200 535t527 207q332 0 531 -207t199 -539q0 -346 -193 -555q-199 -219 -541 -219t-536 221q-186 211 -187 557zM313 721q0 -266 129 -428q139 -178 400 -178q258 0 391 186q119 164 119 432q0 258 -125 418q-135 176 -387 176q-264 0 -402 -176 q-125 -160 -125 -430zM551 1599v209h178v-209h-178zM952 1599v209h178v-209h-178z" />
<glyph unicode="&#xd7;" horiz-adv-x="1482" d="M270 940l127 127l334 -328l322 328l114 -113l-321 -327l334 -328l-125 -127l-334 326l-324 -328l-114 113l323 327z" />
<glyph unicode="&#xd8;" horiz-adv-x="1662" d="M96 121l142 135q-135 229 -136 465q0 334 198 548t527 214q289 0 496 -185l141 134l99 -105l-146 -137q145 -197 146 -469q0 -197 -88 -369q-92 -180 -254 -280q-176 -109 -408 -109q-143 0 -258 45q-102 41 -225 137l-133 -127zM315 719q0 -158 66 -324l809 774 q-148 160 -369 160q-250 0 -385 -186q-121 -166 -121 -424zM459 268q92 -84 168 -116q86 -37 202 -37q246 0 388 170q133 158 133 407q0 201 -78 357z" />
<glyph unicode="&#xd9;" horiz-adv-x="1409" d="M154 481l2 70v895h192v-924q0 -395 348 -395q135 0 240 76q121 88 121 360v883h194v-924q1 -141 -26 -221q-55 -168 -207 -256q-137 -82 -324 -82q-147 0 -295 68q-168 78 -206 207q-41 141 -39 243zM489 1833h203l99 -254h-123z" />
<glyph unicode="&#xda;" horiz-adv-x="1409" d="M154 481l2 70v895h192v-924q0 -395 348 -395q135 0 240 76q121 88 121 360v883h194v-924q1 -141 -26 -221q-55 -168 -207 -256q-137 -82 -324 -82q-147 0 -295 68q-168 78 -206 207q-41 141 -39 243zM618 1579l99 254h203l-179 -254h-123z" />
<glyph unicode="&#xdb;" horiz-adv-x="1409" d="M154 481l2 70v895h192v-924q0 -395 348 -395q135 0 240 76q121 88 121 360v883h194v-924q1 -141 -26 -221q-55 -168 -207 -256q-137 -82 -324 -82q-147 0 -295 68q-168 78 -206 207q-41 141 -39 243zM428 1579l207 254h133l219 -254h-158l-127 152l-120 -152h-154z" />
<glyph unicode="&#xdc;" horiz-adv-x="1409" d="M154 481l2 70v895h192v-924q0 -395 348 -395q135 0 240 76q121 88 121 360v883h194v-924q1 -141 -26 -221q-55 -168 -207 -256q-137 -82 -324 -82q-147 0 -295 68q-168 78 -206 207q-41 141 -39 243zM412 1599v209h178v-209h-178zM815 1599v209h178v-209h-178z" />
<glyph unicode="&#xdd;" horiz-adv-x="468" d="M137 0v1446h195v-1446h-195zM147 1620v203h179v-203h-179z" />
<glyph unicode="&#xde;" horiz-adv-x="1366" d="M76 463l207 26q0 -180 120 -280q113 -94 295 -94q154 0 250 65q111 74 111 221q0 135 -123 197q-49 25 -246 68q-270 59 -364 110q-180 98 -181 303q0 127 84 232.5t207 138.5t244 33q139 0 268 -47q158 -57 211 -160q33 -63 82 -238l-194 -14q0 158 -111 238 q-98 72 -260 71q-133 0 -221 -47q-111 -59 -111 -180q0 -109 94 -162q51 -29 193 -63l268 -66q367 -90 367 -397q0 -227 -181 -348q-155 -107 -393 -107q-168 0 -319 57q-184 70 -236 205q-61 164 -61 238zM549 -197l149 230l60 -15l-60 -106q86 -47 93 -53q35 -31 34 -99 q0 -94 -88 -139q-70 -37 -172 -37v47l15 -2q92 0 92 74q0 61 -123 100z" />
<glyph unicode="&#xdf;" horiz-adv-x="1110" d="M131 0v1061q0 422 393 422q176 0 281 -78q117 -86 117 -258q0 -201 -185 -277q293 -41 293 -393q0 -500 -446 -500q-100 0 -191 31v172q102 -43 201 -43q270 0 270 326q0 193 -131 264q-104 57 -323 57v162l82 -4q109 -6 182 45q84 57 84 162q0 90 -70 139 q-61 43 -156 43q-145 0 -198 -92q-41 -70 -41 -231v-1008h-162z" />
<glyph unicode="&#xe0;" horiz-adv-x="1024" d="M66 248q0 98 68.5 180t165.5 100.5t409 49.5v18q0 141 -37 201q-47 74 -183 73q-205 0 -204 -182v-20l-170 10q0 158 110 242q100 76 262 75q109 0 207 -39q121 -49 149.5 -136t28.5 -193v-353q0 -72 7 -92q14 -47 65 -47q18 0 51 8v-137q-55 -18 -108 -18 q-143 0 -164 143q-137 -158 -326 -158q-137 0 -229 68q-102 74 -102 207zM246 254q0 -72 57 -111q49 -33 125 -32q131 0 209 76.5t74 207.5l-2 76q-141 -18 -172 -25q-109 -18 -166 -43q-125 -51 -125 -149zM305 1362h182l84 -295h-96z" />
<glyph unicode="&#xe1;" horiz-adv-x="1024" d="M66 248q0 98 68.5 180t165.5 100.5t409 49.5v18q0 141 -37 201q-47 74 -183 73q-205 0 -204 -182v-20l-170 10q0 158 110 242q100 76 262 75q109 0 207 -39q121 -49 149.5 -136t28.5 -193v-353q0 -72 7 -92q14 -47 65 -47q18 0 51 8v-137q-55 -18 -108 -18 q-143 0 -164 143q-137 -158 -326 -158q-137 0 -229 68q-102 74 -102 207zM246 254q0 -72 57 -111q49 -33 125 -32q131 0 209 76.5t74 207.5l-2 76q-141 -18 -172 -25q-109 -18 -166 -43q-125 -51 -125 -149zM465 1069l84 295h176l-176 -295h-84z" />
<glyph unicode="&#xe2;" horiz-adv-x="1024" d="M66 248q0 98 68.5 180t165.5 100.5t409 49.5v18q0 141 -37 201q-47 74 -183 73q-205 0 -204 -182v-20l-170 10q0 158 110 242q100 76 262 75q109 0 207 -39q121 -49 149.5 -136t28.5 -193v-353q0 -72 7 -92q14 -47 65 -47q18 0 51 8v-137q-55 -18 -108 -18 q-143 0 -164 143q-137 -158 -326 -158q-137 0 -229 68q-102 74 -102 207zM246 254q0 -72 57 -111q49 -33 125 -32q131 0 209 76.5t74 207.5l-2 76q-141 -18 -172 -25q-109 -18 -166 -43q-125 -51 -125 -149zM248 1071l192 309h138l213 -309h-154l-125 195l-121 -195h-143z " />
<glyph unicode="&#xe3;" horiz-adv-x="1024" d="M66 248q0 98 68.5 180t165.5 100.5t409 49.5v18q0 141 -37 201q-47 74 -183 73q-205 0 -204 -182v-20l-170 10q0 158 110 242q100 76 262 75q109 0 207 -39q121 -49 149.5 -136t28.5 -193v-353q0 -72 7 -92q14 -47 65 -47q18 0 51 8v-137q-55 -18 -108 -18 q-143 0 -164 143q-137 -158 -326 -158q-137 0 -229 68q-102 74 -102 207zM213 1104q25 203 180 203q43 0 131 -35t125 -35q53 0 64 63h98l-14 -61q-33 -143 -158 -143q-45 0 -136 35.5t-122 35.5q-57 0 -68 -63h-100zM246 254q0 -72 57 -111q49 -33 125 -32q131 0 209 76.5 t74 207.5l-2 76q-141 -18 -172 -25q-109 -18 -166 -43q-125 -51 -125 -149z" />
<glyph unicode="&#xe4;" horiz-adv-x="1024" d="M66 248q0 98 68.5 180t165.5 100.5t409 49.5v18q0 141 -37 201q-47 74 -183 73q-205 0 -204 -182v-20l-170 10q0 158 110 242q100 76 262 75q109 0 207 -39q121 -49 149.5 -136t28.5 -193v-353q0 -72 7 -92q14 -47 65 -47q18 0 51 8v-137q-55 -18 -108 -18 q-143 0 -164 143q-137 -158 -326 -158q-137 0 -229 68q-102 74 -102 207zM215 1108v211h178v-211h-178zM246 254q0 -72 57 -111q49 -33 125 -32q131 0 209 76.5t74 207.5l-2 76q-141 -18 -172 -25q-109 -18 -166 -43q-125 -51 -125 -149zM616 1108v211h183v-211h-183z" />
<glyph unicode="&#xe5;" horiz-adv-x="1024" d="M66 248q0 98 68.5 180t165.5 100.5t409 49.5v18q0 141 -37 201q-47 74 -183 73q-205 0 -204 -182v-20l-170 10q0 158 110 242q100 76 262 75q109 0 207 -39q121 -49 149.5 -136t28.5 -193v-353q0 -72 7 -92q14 -47 65 -47q18 0 51 8v-137q-55 -18 -108 -18 q-143 0 -164 143q-137 -158 -326 -158q-137 0 -229 68q-102 74 -102 207zM246 254q0 -72 57 -111q49 -33 125 -32q131 0 209 76.5t74 207.5l-2 76q-141 -18 -172 -25q-109 -18 -166 -43q-125 -51 -125 -149zM311 1245q0 82 55.5 138.5t137.5 56.5q80 0 137 -57.5t57 -137.5 t-57 -137t-137 -57q-82 0 -137.5 56t-55.5 138zM399 1247q0 -45 30 -75.5t75 -30.5t74.5 30.5t29.5 75.5q0 43 -30.5 74t-73.5 31t-74 -31t-31 -74z" />
<glyph unicode="&#xe6;" horiz-adv-x="1662" d="M68 242q0 176 170 260q113 55 350 55h63q12 0 37 -2h25h18v16q0 127 -55 207q-63 92 -184 92q-86 0 -144.5 -54t-58.5 -140l-172 10q14 150 119 232q98 78 251 77q231 0 330 -172q127 172 334 172q127 0 230.5 -66.5t154.5 -183.5q59 -131 59 -288v-19h-700 q0 -143 66 -233q74 -102 210 -103q90 0 155 57.5t81 147.5l172 -26q-33 -143 -153.5 -227.5t-272.5 -84.5q-252 0 -365 203q-154 -203 -391 -203q-137 0 -227 66q-102 74 -102 207zM238 248q0 -72 61 -113q53 -37 127 -37q143 0 227 101q78 92 78 239h-94q-289 0 -350 -84 q-49 -66 -49 -106zM893 557h528q0 119 -76.5 211t-193.5 92q-115 0 -188 -96q-70 -88 -70 -207z" />
<glyph unicode="&#xe7;" d="M80 477q0 229 119 369q125 150 350 149q152 0 289 -86q156 -98 155 -237l-180 -19q-41 223 -264 224q-154 0 -227 -125q-61 -102 -62 -267q0 -168 66 -268q78 -121 237 -121q229 0 273 269l176 -17q-45 -280 -285 -354q-47 -14 -127 -21l-37 -61q86 -51 92 -57 q37 -35 37 -95q0 -94 -88 -139q-70 -37 -172 -37v47l14 -2q92 0 93 74q0 43 -43 68l-80 32l108 168q-152 16 -237 66q-100 59 -153.5 187t-53.5 253z" />
<glyph unicode="&#xe8;" d="M80 481q0 154 57 273q66 135 195 190q119 51 213 51q221 0 338 -155q106 -139 106 -367v-18h-733v-17q0 -143 78 -239q84 -106 223 -107q213 0 266 225l166 -22l-31 -82q-1 -4 -26 -43q-129 -201 -369 -201q-229 0 -358 144q-125 137 -125 368zM260 571h551 q0 125 -76.5 211t-199.5 86q-121 0 -195 -90q-68 -82 -80 -207zM338 1362h182l84 -295h-98z" />
<glyph unicode="&#xe9;" d="M80 481q0 154 57 273q66 135 195 190q119 51 213 51q221 0 338 -155q106 -139 106 -367v-18h-733v-17q0 -143 78 -239q84 -106 223 -107q213 0 266 225l166 -22l-31 -82q-1 -4 -26 -43q-129 -201 -369 -201q-229 0 -358 144q-125 137 -125 368zM260 571h551 q0 125 -76.5 211t-199.5 86q-121 0 -195 -90q-68 -82 -80 -207zM485 1069l86 295h177l-177 -295h-86z" />
<glyph unicode="&#xea;" d="M80 481q0 154 57 273q66 135 195 190q119 51 213 51q221 0 338 -155q106 -139 106 -367v-18h-733v-17q0 -143 78 -239q84 -106 223 -107q213 0 266 225l166 -22l-31 -82q-1 -4 -26 -43q-129 -201 -369 -201q-229 0 -358 144q-125 137 -125 368zM260 571h551 q0 125 -76.5 211t-199.5 86q-121 0 -195 -90q-68 -82 -80 -207zM268 1071l193 309h139l213 -309h-156l-125 195l-120 -195h-144z" />
<glyph unicode="&#xeb;" d="M80 481q0 154 57 273q66 135 195 190q119 51 213 51q221 0 338 -155q106 -139 106 -367v-18h-733v-17q0 -143 78 -239q84 -106 223 -107q213 0 266 225l166 -22l-31 -82q-1 -4 -26 -43q-129 -201 -369 -201q-229 0 -358 144q-125 137 -125 368zM260 571h551 q0 125 -76.5 211t-199.5 86q-121 0 -195 -90q-68 -82 -80 -207zM266 1108v211h178v-211h-178zM668 1108v211h182v-211h-182z" />
<glyph unicode="&#xec;" horiz-adv-x="425" d="M18 1362h181l86 -295h-99zM137 0v965h158v-965h-158z" />
<glyph unicode="&#xed;" horiz-adv-x="425" d="M137 0v965h158v-965h-158zM156 1069l84 295h176l-176 -295h-84z" />
<glyph unicode="&#xee;" horiz-adv-x="425" d="M-51 1071l192 309h140l211 -309h-154l-125 195l-121 -195h-143zM137 0v965h158v-965h-158z" />
<glyph unicode="&#xef;" horiz-adv-x="425" d="M-76 1108v211h178v-211h-178zM137 0v965h158v-965h-158zM328 1108v211h180v-211h-180z" />
<glyph unicode="&#xf0;" horiz-adv-x="1150" d="M84 471q0 227 104 367q117 158 336 157h8q174 0 316 -161v131h170v-951q0 -176 -43 -272q-49 -109 -170 -164q-103 -47 -236 -47q-186 0 -305 84q-135 94 -135 274h184q0 -115 78 -172q72 -53 189 -53q111 0 184 49q84 55 84 260v166q-137 -170 -320 -170 q-209 0 -329 150q-115 139 -115 352zM252 481q0 -164 70 -258q78 -106 235 -106q156 0 231 116q66 98 66 263q0 158 -74 249q-79 103 -233 103q-145 0 -225 -115q-70 -100 -70 -252zM283 1341h102q37 -131 160 -131q100 0 137 86q14 33 14 45h109q-7 -131 -107 -211 q-72 -55 -155 -55q-111 0 -185.5 78t-74.5 188z" />
<glyph unicode="&#xf1;" d="M131 0v965h164v-142q102 172 303 172q90 0 180 -47q100 -51 125 -129q29 -90 29 -182v-637h-162l2 614q0 227 -225 228q-68 0 -137.5 -40t-90.5 -100q-25 -74 -24 -153v-549h-164zM233 1104q25 203 181 203q43 0 131 -35t125 -35q45 0 65 63h96q0 -78 -45 -137 q-48 -67 -124 -67q-45 0 -135.5 35.5t-125.5 35.5q-57 0 -67 -63h-101z" />
<glyph unicode="&#xf2;" horiz-adv-x="1110" d="M82 481q0 225 127 369.5t350 144.5q221 0 348 -147q121 -139 121 -365q0 -223 -123 -364q-129 -150 -348 -150q-225 0 -352 146q-123 139 -123 366zM260 471q0 -158 68 -256q78 -115 229 -115q295 0 295 398q0 366 -285 366q-162 0 -239 -121q-68 -102 -68 -272z M358 1362h183l84 -295h-97z" />
<glyph unicode="&#xf3;" horiz-adv-x="1110" d="M82 481q0 225 127 369.5t350 144.5q221 0 348 -147q121 -139 121 -365q0 -223 -123 -364q-129 -150 -348 -150q-225 0 -352 146q-123 139 -123 366zM260 471q0 -158 68 -256q78 -115 229 -115q295 0 295 398q0 366 -285 366q-162 0 -239 -121q-68 -102 -68 -272z M498 1069l84 295h176l-176 -295h-84z" />
<glyph unicode="&#xf4;" horiz-adv-x="1110" d="M82 481q0 225 127 369.5t350 144.5q221 0 348 -147q121 -139 121 -365q0 -223 -123 -364q-129 -150 -348 -150q-225 0 -352 146q-123 139 -123 366zM260 471q0 -158 68 -256q78 -115 229 -115q295 0 295 398q0 366 -285 366q-162 0 -239 -121q-68 -102 -68 -272z M291 1071l192 309h138l213 -309h-154l-125 195l-121 -195h-143z" />
<glyph unicode="&#xf5;" horiz-adv-x="1110" d="M82 481q0 225 127 369.5t350 144.5q221 0 348 -147q121 -139 121 -365q0 -223 -123 -364q-129 -150 -348 -150q-225 0 -352 146q-123 139 -123 366zM256 1104q29 203 180 203q43 0 131 -35t123 -35q55 0 66 63h98l-14 -61q-33 -143 -158 -143q-45 0 -136 35.5t-124 35.5 q-51 0 -68 -63h-98zM260 471q0 -158 68 -256q78 -115 229 -115q295 0 295 398q0 366 -285 366q-162 0 -239 -121q-68 -102 -68 -272z" />
<glyph unicode="&#xf6;" horiz-adv-x="1110" d="M82 481q0 227 123 367q131 147 354 147q221 0 348 -147q121 -139 121 -365q0 -223 -123 -364q-129 -150 -348 -150q-225 0 -352 146q-123 139 -123 366zM260 481q0 -381 291 -381q301 0 301 398q0 366 -285 366q-158 0 -237 -116q-70 -100 -70 -267zM272 1108v211h179 v-211h-179zM676 1108v211h180v-211h-180z" />
<glyph unicode="&#xf7;" horiz-adv-x="1482" d="M162 532v166h1159v-166h-1159zM651 168v225h183v-225h-183zM651 838v225h183v-225h-183z" />
<glyph unicode="&#xf8;" horiz-adv-x="1110" d="M78 92l88 86q-82 145 -82 303q0 217 131 365.5t346 148.5q168 0 313 -125l91 88l71 -73l-94 -94q88 -125 88 -310q0 -221 -125 -364q-131 -147 -350 -148q-197 0 -324 131l-81 -82zM256 498q0 -90 35 -195l473 457q-104 104 -213 104q-141 0 -223 -116q-72 -102 -72 -250 zM344 211q82 -111 221 -111q141 0 223 115q74 102 74 248q0 137 -41 209z" />
<glyph unicode="&#xf9;" d="M133 322v643h162v-613q0 -223 199 -223q137 0 208 88q68 82 68 223v525h160v-965h-160v147q-31 -33 -59 -65q-117 -106 -275 -107q-88 0 -162 41q-80 45 -110.5 122t-30.5 184zM338 1362h182l84 -295h-98z" />
<glyph unicode="&#xfa;" d="M133 322v643h162v-613q0 -223 199 -223q137 0 208 88q68 82 68 223v525h160v-965h-160v147q-31 -33 -59 -65q-117 -106 -275 -107q-88 0 -162 41q-80 45 -110.5 122t-30.5 184zM475 1069l86 295h176l-176 -295h-86z" />
<glyph unicode="&#xfb;" d="M133 322v643h162v-613q0 -223 199 -223q137 0 208 88q68 82 68 223v525h160v-965h-160v147q-31 -33 -59 -65q-117 -106 -275 -107q-88 0 -162 41q-80 45 -110.5 122t-30.5 184zM268 1071l193 309h139l213 -309h-156l-125 195l-120 -195h-144z" />
<glyph unicode="&#xfc;" d="M133 332v633h162v-613q0 -223 205 -223q76 0 146.5 40t97 108.5t26.5 203.5v484h160v-965h-160v147q-27 -33 -53 -59q-115 -113 -281 -113q-303 0 -303 357zM238 1108v211h178v-211h-178zM639 1108v211h182v-211h-182z" />
<glyph unicode="&#xfd;" horiz-adv-x="425" d="M137 0v965h158v-965h-158z" />
<glyph unicode="&#xfe;" horiz-adv-x="980" d="M63 311l187 29q0 -246 266 -246q227 0 227 162q0 90 -90 127q-20 8 -170 39q-190 39 -254 74q-125 68 -125 211q0 147 119 223q100 66 256 65q162 0 273 -77q123 -86 139 -240l-176 -23q0 78 -25.5 120t-97.5 68.5t-133 26.5q-76 0 -129 -32q-63 -39 -64 -109 q0 -78 240 -158q80 -27 319 -100q90 -41 90 -197q0 -152 -133 -235q-114 -70 -274 -70q-397 0 -445 342zM365 -197l149 230l59 -15l-59 -106q86 -47 92 -53q35 -31 35 -99q0 -94 -88 -139q-70 -37 -172 -37v47l14 -2q92 0 92 74q0 61 -122 100z" />
<glyph unicode="&#xff;" horiz-adv-x="894" d="M18 -309q45 -16 101 -17q80 0 123 45q31 35 61 121l53 154l-327 971h174l241 -766l256 766h170l-405 -1141q-53 -152 -98 -209q-72 -92 -199 -92q-80 0 -150 20v148zM160 1108v211h178v-211h-178zM561 1108v211h182v-211h-182z" />
<glyph unicode="&#x152;" horiz-adv-x="2347" d="M102 729q0 332 189 539q197 215 524 215q266 0 451 -189v152h1003v-172h-819v-449h661v-168h-661v-489h842v-168h-1026v168q-176 -205 -471 -205q-324 0 -514 225q-178 211 -179 541zM307 719q0 -137 53 -295q45 -131 168 -216t265 -85q147 0 266 80q127 84 166 221 q41 147 41 324q-1 345 -191 497q-111 88 -274 88q-244 0 -377 -192q-117 -168 -117 -422z" />
<glyph unicode="&#x153;" horiz-adv-x="1792" d="M86 481q0 135 57 273q47 111 170 178q115 63 242 63q213 0 350 -178l37 47q102 131 315 131q229 0 351 -170q109 -150 108 -387h-727q0 -143 76 -237q80 -100 221 -101q188 0 252 211l166 -22q-119 -319 -426 -320q-252 0 -373 193q-131 -193 -360 -193q-129 0 -244 66 q-127 72 -166 184q-49 143 -49 262zM260 477q0 -156 64 -254q74 -117 221 -117q143 0 217 123q63 104 63 256q0 150 -63 252q-74 121 -215 121q-145 0 -221 -123q-66 -104 -66 -258zM989 561h547q-12 125 -78 209q-73 94 -192 94q-123 0 -199 -92q-66 -82 -78 -211z" />
<glyph unicode="&#x178;" horiz-adv-x="1280" d="M29 1446h227l381 -612l385 612h229l-520 -784v-662h-194v662zM350 1599v209h178v-209h-178zM752 1599v209h178v-209h-178z" />
<glyph unicode="&#x2c6;" horiz-adv-x="555" d="M6 1071l193 309h137l213 -309h-154l-125 195l-120 -195h-144z" />
<glyph unicode="&#x2dc;" horiz-adv-x="555" d="M-23 1104q25 203 181 203q43 0 131 -35t125 -35q53 0 63 63h101l-15 -61q-47 -143 -157 -143q-45 0 -136.5 35.5t-122.5 35.5q-57 0 -67 -63h-103z" />
<glyph unicode="&#x2000;" horiz-adv-x="965" />
<glyph unicode="&#x2001;" horiz-adv-x="1931" />
<glyph unicode="&#x2002;" horiz-adv-x="965" />
<glyph unicode="&#x2003;" horiz-adv-x="1931" />
<glyph unicode="&#x2004;" horiz-adv-x="643" />
<glyph unicode="&#x2005;" horiz-adv-x="482" />
<glyph unicode="&#x2006;" horiz-adv-x="321" />
<glyph unicode="&#x2007;" horiz-adv-x="321" />
<glyph unicode="&#x2008;" horiz-adv-x="241" />
<glyph unicode="&#x2009;" horiz-adv-x="386" />
<glyph unicode="&#x200a;" horiz-adv-x="107" />
<glyph unicode="&#x2010;" horiz-adv-x="757" d="M92 537v155h574v-155h-574z" />
<glyph unicode="&#x2011;" horiz-adv-x="757" d="M92 537v155h574v-155h-574z" />
<glyph unicode="&#x2012;" horiz-adv-x="757" d="M92 537v155h574v-155h-574z" />
<glyph unicode="&#x2013;" horiz-adv-x="1228" d="M92 537v155h1045v-155h-1045z" />
<glyph unicode="&#x2014;" horiz-adv-x="1832" d="M92 537v155h1649v-155h-1649z" />
<glyph unicode="&#x2018;" horiz-adv-x="468" d="M129 901v105q0 213 86 440h96q-53 -156 -67 -322h88v-223h-203z" />
<glyph unicode="&#x2019;" horiz-adv-x="468" d="M129 1221v225h203v-107q0 -239 -84 -438h-96q68 199 67 320h-90z" />
<glyph unicode="&#x201a;" horiz-adv-x="468" d="M129 0v223h203v-123q0 -233 -84 -419h-96q68 199 67 319h-90z" />
<glyph unicode="&#x201c;" horiz-adv-x="768" d="M129 901v117q0 236 86 428h96q-68 -184 -67 -322h88v-223h-203zM434 901v117q0 227 86 428h94q-66 -154 -65 -322h88v-223h-203z" />
<glyph unicode="&#x201d;" horiz-adv-x="768" d="M129 1221v225h203v-125q0 -234 -84 -420h-96q68 199 67 320h-90zM434 1221v225h203v-137q-1 -198 -62 -348l-24 -60h-94q47 137 65 320h-88z" />
<glyph unicode="&#x201e;" horiz-adv-x="768" d="M129 0v223h203v-123q0 -233 -84 -419h-96q68 199 67 319h-90zM434 0v223h203v-137q-1 -196 -62 -346l-24 -59h-94q66 193 65 319h-88z" />
<glyph unicode="&#x2022;" horiz-adv-x="681" d="M109 494v464h466v-464h-466z" />
<glyph unicode="&#x2026;" horiz-adv-x="2048" d="M244 0v190h192v-190h-192zM926 0v190h194v-190h-194zM1610 0v190h194v-190h-194z" />
<glyph unicode="&#x202f;" horiz-adv-x="386" />
<glyph unicode="&#x2039;" horiz-adv-x="468" d="M137 0v1446h195v-1446h-195zM147 1620v203h179v-203h-179z" />
<glyph unicode="&#x203a;" horiz-adv-x="425" d="M137 0v965h158v-965h-158z" />
<glyph unicode="&#x205f;" horiz-adv-x="482" />
<glyph unicode="&#x2122;" horiz-adv-x="1421" d="M47 1346v100h512v-100h-194v-580h-121v580h-197zM629 766v680h159l168 -543l162 543h154v-680h-111l4 534l-159 -534h-111l-154 526l2 -526h-114z" />
<glyph unicode="&#xe000;" horiz-adv-x="962" d="M0 0v963h963v-963h-963z" />
</font>
</defs>
</svg>
