<?xml version="1.0" encoding="utf-8"?>
<!-- Generator: Adobe Illustrator 15.1.0, SVG Export Plug-In . SVG Version: 6.00 Build 0)  -->
<!DOCTYPE svg PUBLIC "-//W3C//DTD SVG 1.1//EN" "http://www.w3.org/Graphics/SVG/1.1/DTD/svg11.dtd">
<svg version="1.1" id="Layer_1" xmlns="http://www.w3.org/2000/svg" xmlns:xlink="http://www.w3.org/1999/xlink" x="0px" y="0px"
	 width="398px" height="520px" viewBox="0 0 398 520" enable-background="new 0 0 398 520" xml:space="preserve">
<path fill="#070707" d="M186.266,259.408l27.244-50.342c0,0,3.271-5.948,10.66-2.665c5.33,2.369,3.554,7.996,3.554,7.996
	l-12.438,24.875c0,0,13.027-1.185,11.844,10.364c0,0,13.031-0.888,10.958,10.958c0,0,15.693-0.297,7.698,14.214l-22.505,30.206
	c0,0-8.885,17.174-29.613,5.033l-18.656-13.918c0,0-5.034-2.962-4.442-15.99v-37.018c0,0,0.591-6.811,7.107-6.811
	s7.404,5.627,7.404,5.627L186.266,259.408z"/>
<g id="OxiUfX_1_">
</g>
<path display="none" fill="#070707" d="M231.918,217.835h20.549v4.135l10.579-7.988l-10.579-7.989v4.135h-20.549V217.835z"/>
</svg>
