<?xml version="1.0" encoding="utf-8"?>
<!-- Generator: Adobe Illustrator 15.1.0, SVG Export Plug-In . SVG Version: 6.00 Build 0)  -->
<!DOCTYPE svg PUBLIC "-//W3C//DTD SVG 1.0//EN" "http://www.w3.org/TR/2001/REC-SVG-20010904/DTD/svg10.dtd">
<svg version="1.0" id="Layer_1" xmlns="http://www.w3.org/2000/svg" xmlns:xlink="http://www.w3.org/1999/xlink" x="0px" y="0px"
	 width="612px" height="792px" viewBox="0 0 612 792" enable-background="new 0 0 612 792" xml:space="preserve">
<g>
	<image overflow="visible" width="1536" height="2048" xlink:href="19820A6A.jpg"  transform="matrix(1 0 0 1 -462 -628)">
	</image>
	<g>
		<defs>
			<path id="SVGID_1_" d="M-11.2,755.7v-852c0-27,21.9-48.9,48.9-48.9h540.7c27,0,48.9,21.9,48.9,48.9v852c0,27-21.9,48.9-48.9,48.9
				H37.7C10.7,804.5-11.2,782.7-11.2,755.7L-11.2,755.7z"/>
		</defs>
		<clipPath id="SVGID_2_">
			<use xlink:href="#SVGID_1_"  overflow="visible"/>
		</clipPath>
		<g clip-path="url(#SVGID_2_)">
			<image overflow="visible" width="1536" height="2048" xlink:href="19820A6E.jpg"  transform="matrix(1 0 0 1 -462 -628)">
			</image>
		</g>
	</g>
	<g>
		<defs>
			<path id="SVGID_3_" d="M-11.2,755.7v-852c0-27,21.9-48.9,48.9-48.9h540.7c27,0,48.9,21.9,48.9,48.9v852c0,27-21.9,48.9-48.9,48.9
				H37.7C10.7,804.5-11.2,782.7-11.2,755.7L-11.2,755.7z"/>
		</defs>
		<defs>
			<path id="SVGID_4_" d="M107.3,339.5c0,0-19.5-6.5,5.1-8.5l28.8-3.4l-8.5-9.4c0,0-0.8-4.4,5.1,1.7l6.8,6.8c0,0,88.3-6.6,105.9-0.9
				c0,0,22.7,2.4,69.5,29c0,0,22.2,11.1,52.5,11.9c0,0,19,8.4,22,14.5c0,0,6.6,1.9,8.5,9.4c0,0,18.8,12.1,6.8,29
				c0,0,13.9,10.4-18.6,15.3l-6.8,0.9h-3.4v-2.6h-2.5c0,0-2.7,22.2-27.1,22.2c-15.8,0-23.9-11-27.7-18.8c-2.1-4.3-2.8-7.6-2.8-7.6
				l0.5,1.7l-0.8,5.1H148v-1.7l-2.5,1.7c0,0-8.6,22.2-30.5,22.2c-21.9,0-28.8-26.4-28.8-26.4h-3.4v0.9c0,0-23.2,4.1-22-23.9
				c0,0,0.2-34.3,22-44.3L107.3,339.5L107.3,339.5z"/>
		</defs>
		<clipPath id="SVGID_5_">
			<use xlink:href="#SVGID_3_"  overflow="visible"/>
		</clipPath>
		<clipPath id="SVGID_6_" clip-path="url(#SVGID_5_)">
			<use xlink:href="#SVGID_4_"  overflow="visible"/>
		</clipPath>
		<g clip-path="url(#SVGID_6_)">
			<image overflow="visible" width="1536" height="2048" xlink:href="19820A69.jpg"  transform="matrix(1 0 0 1 -462 -628)">
			</image>
		</g>
	</g>
	<g>
		<defs>
			<path id="SVGID_7_" d="M-11.2,755.7v-852c0-27,21.9-48.9,48.9-48.9h540.7c27,0,48.9,21.9,48.9,48.9v852c0,27-21.9,48.9-48.9,48.9
				H37.7C10.7,804.5-11.2,782.7-11.2,755.7L-11.2,755.7z"/>
		</defs>
		<defs>
			<polygon id="SVGID_8_" points="446.8,419.9 504.8,419.9 504.8,440.5 557.3,400.7 504.8,360.8 504.8,381.5 446.8,381.5 
				446.8,419.9 			"/>
		</defs>
		<clipPath id="SVGID_9_">
			<use xlink:href="#SVGID_7_"  overflow="visible"/>
		</clipPath>
		<clipPath id="SVGID_10_" clip-path="url(#SVGID_9_)">
			<use xlink:href="#SVGID_8_"  overflow="visible"/>
		</clipPath>
		<g clip-path="url(#SVGID_10_)">
			<image overflow="visible" width="1536" height="2048" xlink:href="19820A6B.jpg"  transform="matrix(1 0 0 1 -462 -628)">
			</image>
		</g>
	</g>
</g>
</svg>
