<?xml version="1.0" encoding="utf-8"?>
<!-- Generator: Adobe Illustrator 16.0.1, SVG Export Plug-In . SVG Version: 6.00 Build 0)  -->
<!DOCTYPE svg PUBLIC "-//W3C//DTD SVG 1.1//EN" "http://www.w3.org/Graphics/SVG/1.1/DTD/svg11.dtd">
<svg version="1.1" id="Layer_1" xmlns="http://www.w3.org/2000/svg" xmlns:xlink="http://www.w3.org/1999/xlink" x="0px" y="0px"
	 width="224px" height="260px" viewBox="0 0 224 260" enable-background="new 0 0 224 260" xml:space="preserve">
<path fill="#070707" d="M104.833,129.667l15.333-28.333c0,0,1.841-3.348,6-1.5c3,1.333,2,4.5,2,4.5l-7,14
	c0,0,7.332-0.667,6.666,5.833c0,0,7.334-0.5,6.167,6.167c0,0,8.833-0.167,4.333,8l-12.666,17c0,0-5.001,9.666-16.667,2.833
	l-10.5-7.833c0,0-2.833-1.667-2.5-9V120.5c0,0,0.333-3.833,4-3.833s4.167,3.167,4.167,3.167L104.833,129.667z"/>
<g id="OxiUfX_1_">
</g>
<path fill-rule="evenodd" clip-rule="evenodd" fill="#070707" d="M130.527,106.269h11.565v2.327l5.954-4.496l-5.954-4.496v2.327
	h-11.565V106.269z"/>
</svg>
